v -3.53630E+02  1.17241E+02 -5.66185E+02
v -2.02064E+02  1.17241E+02 -5.66185E+02
v -2.02064E+02  1.17241E+02 -9.47710E+02
v -3.53630E+02  1.17241E+02 -9.47710E+02
v -3.53630E+02 -4.06287E+00 -5.66185E+02
v -2.02064E+02 -4.06287E+00 -5.66185E+02
v -2.02064E+02 -4.06287E+00 -9.47710E+02
v -3.53630E+02 -4.06287E+00 -9.47710E+02
g vc_ws_94
s 0
f  1 2 3 4
f  1 2 6 5
f  3 2 6 7
f  4 3 7 8
f  4 1 5 8
f  5 6 7 8
v  3.82936E+02  2.89940E+01 -8.41530E+02
v  5.08124E+02  2.89940E+01 -8.41530E+02
v  5.08124E+02  2.89940E+01 -1.04214E+03
v  3.82936E+02  2.89940E+01 -1.04214E+03
v  3.82936E+02 -4.06287E+00 -8.41530E+02
v  5.08124E+02 -4.06287E+00 -8.41530E+02
v  5.08124E+02 -4.06287E+00 -1.04214E+03
v  3.82936E+02 -4.06287E+00 -1.04214E+03
g vc_ws_218
s 0
f  9 10 11 12
f  9 10 14 13
f  11 10 14 15
f  12 11 15 16
f  12 9 13 16
f  13 14 15 16
v -5.41679E+02  1.16540E+02 -6.53517E+02
v -3.53630E+02  1.16540E+02 -6.53517E+02
v -3.53630E+02  1.16540E+02 -7.77475E+02
v -5.41679E+02  1.16540E+02 -7.77475E+02
v -5.41679E+02 -4.06287E+00 -6.53517E+02
v -3.53630E+02 -4.06287E+00 -6.53517E+02
v -3.53630E+02 -4.06287E+00 -7.77475E+02
v -5.41679E+02 -4.06287E+00 -7.77475E+02
g vc_ws_234
s 0
f  17 18 19 20
f  17 18 22 21
f  19 18 22 23
f  20 19 23 24
f  20 17 21 24
f  21 22 23 24
v -4.32404E+02  6.72190E+01 -7.77475E+02
v -3.53630E+02  6.72190E+01 -7.77475E+02
v -3.53630E+02  6.72190E+01 -9.47710E+02
v -4.32404E+02  6.72190E+01 -9.47710E+02
v -4.32404E+02 -4.06287E+00 -7.77475E+02
v -3.53630E+02 -4.06287E+00 -7.77475E+02
v -3.53630E+02 -4.06287E+00 -9.47710E+02
v -4.32404E+02 -4.06287E+00 -9.47710E+02
g vc_ws_268
s 0
f  25 26 27 28
f  25 26 30 29
f  27 26 30 31
f  28 27 31 32
f  28 25 29 32
f  29 30 31 32
v  2.18493E+02  4.19032E+01 -4.65218E+02
v  4.26852E+02  4.19032E+01 -4.65218E+02
v  4.26852E+02  4.19032E+01 -6.46185E+02
v  2.18493E+02  4.19032E+01 -6.46185E+02
v  2.18493E+02  2.90077E+01 -4.65218E+02
v  4.26852E+02  2.90077E+01 -4.65218E+02
v  4.26852E+02  2.90077E+01 -6.46185E+02
v  2.18493E+02  2.90077E+01 -6.46185E+02
g vc_ws_281
s 0
f  33 34 35 36
f  33 34 38 37
f  35 34 38 39
f  36 35 39 40
f  36 33 37 40
f  37 38 39 40
v -5.52064E+02  1.60242E+02  4.02667E+02
v -4.16021E+02  1.60242E+02  4.02667E+02
v -4.16021E+02  1.60242E+02  2.45266E+02
v -5.52064E+02  1.60242E+02  2.45266E+02
v -5.52064E+02  9.82261E+01  4.02667E+02
v -4.16021E+02  9.82261E+01  4.02667E+02
v -4.16021E+02  9.82261E+01  2.45266E+02
v -5.52064E+02  9.82261E+01  2.45266E+02
g vc_ws_382
s 0
f  41 42 43 44
f  41 42 46 45
f  43 42 46 47
f  44 43 47 48
f  44 41 45 48
f  45 46 47 48
v  1.91686E+02  3.94461E+01 -6.46185E+02
v  3.82936E+02  3.94461E+01 -6.46185E+02
v  3.82936E+02  3.94461E+01 -8.46185E+02
v  1.91686E+02  3.94461E+01 -8.46185E+02
v  1.91686E+02  6.28684E+00 -6.46185E+02
v  3.82936E+02  6.28684E+00 -6.46185E+02
v  3.82936E+02  6.28684E+00 -8.46185E+02
v  1.91686E+02  6.28684E+00 -8.46185E+02
g vc_ws_429
s 0
f  49 50 51 52
f  49 50 54 53
f  51 50 54 55
f  52 51 55 56
f  52 49 53 56
f  53 54 55 56
v  3.82936E+02  4.07236E+01 -6.46185E+02
v  5.08270E+02  4.07236E+01 -6.46185E+02
v  5.08270E+02  4.07236E+01 -8.41530E+02
v  3.82936E+02  4.07236E+01 -8.41530E+02
v  3.82936E+02  5.31244E+00 -6.46185E+02
v  5.08270E+02  5.31244E+00 -6.46185E+02
v  5.08270E+02  5.31244E+00 -8.41530E+02
v  3.82936E+02  5.31244E+00 -8.41530E+02
g vc_ws_453
s 0
f  57 58 59 60
f  57 58 62 61
f  59 58 62 63
f  60 59 63 64
f  60 57 61 64
f  61 62 63 64
v  2.18493E+02  5.22849E+01 -4.06556E+02
v  4.24527E+02  5.22849E+01 -4.06556E+02
v  4.24527E+02  5.22849E+01 -4.65218E+02
v  2.18493E+02  5.22849E+01 -4.65218E+02
v  2.18493E+02  3.45107E+01 -4.06556E+02
v  4.24527E+02  3.45107E+01 -4.06556E+02
v  4.24527E+02  3.45107E+01 -4.65218E+02
v  2.18493E+02  3.45107E+01 -4.65218E+02
g vc_ws_459
s 0
f  65 66 67 68
f  65 66 70 69
f  67 66 70 71
f  68 67 71 72
f  68 65 69 72
f  69 70 71 72
v  4.34466E+02  1.50339E+02  3.24701E+02
v  5.39236E+02  1.50339E+02  3.24701E+02
v  5.39236E+02  1.50339E+02  1.55506E+02
v  4.34466E+02  1.50339E+02  1.55506E+02
v  4.34466E+02  8.35942E+01  3.24701E+02
v  5.39236E+02  8.35942E+01  3.24701E+02
v  5.39236E+02  8.35942E+01  1.55506E+02
v  4.34466E+02  8.35942E+01  1.55506E+02
g vc_ws_504
s 0
f  73 74 75 76
f  73 74 78 77
f  75 74 78 79
f  76 75 79 80
f  76 73 77 80
f  77 78 79 80
v -4.90849E+02  1.61205E+02 -4.01597E+01
v -3.14736E+02  1.61205E+02 -4.01597E+01
v -3.14736E+02  1.61205E+02 -1.20062E+02
v -4.90849E+02  1.61205E+02 -1.20062E+02
v -4.90849E+02  9.16763E+01 -4.01597E+01
v -3.14736E+02  9.16763E+01 -4.01597E+01
v -3.14736E+02  9.16763E+01 -1.20062E+02
v -4.90849E+02  9.16763E+01 -1.20062E+02
g vc_ws_558
s 0
f  81 82 83 84
f  81 82 86 85
f  83 82 86 87
f  84 83 87 88
f  84 81 85 88
f  85 86 87 88
v -4.86997E+02  1.54475E+02 -2.43187E+02
v -4.34520E+02  1.54475E+02 -2.43187E+02
v -4.34520E+02  1.54475E+02 -4.55470E+02
v -4.86997E+02  1.54475E+02 -4.55470E+02
v -4.86997E+02  8.95674E+01 -2.43187E+02
v -4.34520E+02  8.95674E+01 -2.43187E+02
v -4.34520E+02  8.95674E+01 -4.55470E+02
v -4.86997E+02  8.95674E+01 -4.55470E+02
g vc_ws_594
s 0
f  89 90 91 92
f  89 90 94 93
f  91 90 94 95
f  92 91 95 96
f  92 89 93 96
f  93 94 95 96
v -4.68115E+02  1.78617E+02  2.45266E+02
v -3.39808E+02  1.78617E+02  2.45266E+02
v -3.39808E+02  1.78617E+02  1.59443E+02
v -4.68115E+02  1.78617E+02  1.59443E+02
v -4.68115E+02  9.79461E+01  2.45266E+02
v -3.39808E+02  9.79461E+01  2.45266E+02
v -3.39808E+02  9.79461E+01  1.59443E+02
v -4.68115E+02  9.79461E+01  1.59443E+02
g vc_ws_618
s 0
f  97 98 99 100
f  97 98 102 101
f  99 98 102 103
f  100 99 103 104
f  100 97 101 104
f  101 102 103 104
v -7.25517E+02  1.48492E+02 -7.37277E+02
v -6.38309E+02  1.48492E+02 -7.37277E+02
v -6.38309E+02  1.48492E+02 -8.57696E+02
v -7.25517E+02  1.48492E+02 -8.57696E+02
v -7.25517E+02  1.01850E+02 -7.37277E+02
v -6.38309E+02  1.01850E+02 -7.37277E+02
v -6.38309E+02  1.01850E+02 -8.57696E+02
v -7.25517E+02  1.01850E+02 -8.57696E+02
g vc_ws_630
s 0
f  105 106 107 108
f  105 106 110 109
f  107 106 110 111
f  108 107 111 112
f  108 105 109 112
f  109 110 111 112
v  7.80876E+01  3.04617E+01 -8.46185E+02
v  2.57603E+02  3.04617E+01 -8.46185E+02
v  2.57603E+02  3.04617E+01 -1.03343E+03
v  7.80876E+01  3.04617E+01 -1.03343E+03
v  7.80876E+01  6.23499E+00 -8.46185E+02
v  2.57603E+02  6.23499E+00 -8.46185E+02
v  2.57603E+02  6.23499E+00 -1.03343E+03
v  7.80876E+01  6.23499E+00 -1.03343E+03
g vc_ws_641
s 0
f  113 114 115 116
f  113 114 118 117
f  115 114 118 119
f  116 115 119 120
f  116 113 117 120
f  117 118 119 120
v -2.02064E+02  1.59940E+02  1.98004E+01
v -9.71505E+01  1.59940E+02  1.98004E+01
v -9.71505E+01  1.59940E+02 -4.15022E+01
v -2.02064E+02  1.59940E+02 -4.15022E+01
v -2.02064E+02  8.47801E+01  1.98004E+01
v -9.71505E+01  8.47801E+01  1.98004E+01
v -9.71505E+01  8.47801E+01 -4.15022E+01
v -2.02064E+02  8.47801E+01 -4.15022E+01
g vc_ws_676
s 0
f  121 122 123 124
f  121 122 126 125
f  123 122 126 127
f  124 123 127 128
f  124 121 125 128
f  125 126 127 128
v  2.57603E+02  2.95027E+01 -8.46185E+02
v  3.82936E+02  2.95027E+01 -8.46185E+02
v  3.82936E+02  2.95027E+01 -1.03061E+03
v  2.57603E+02  2.95027E+01 -1.03061E+03
v  2.57603E+02  2.87841E+00 -8.46185E+02
v  3.82936E+02  2.87841E+00 -8.46185E+02
v  3.82936E+02  2.87841E+00 -1.03061E+03
v  2.57603E+02  2.87841E+00 -1.03061E+03
g vc_ws_693
s 0
f  129 130 131 132
f  129 130 134 133
f  131 130 134 135
f  132 131 135 136
f  132 129 133 136
f  133 134 135 136
v  4.61255E+02  1.19612E+02  4.02667E+02
v  5.39236E+02  1.19612E+02  4.02667E+02
v  5.39236E+02  1.19612E+02  3.24701E+02
v  4.61255E+02  1.19612E+02  3.24701E+02
v  4.61255E+02  9.78547E+01  4.02667E+02
v  5.39236E+02  9.78547E+01  4.02667E+02
v  5.39236E+02  9.78547E+01  3.24701E+02
v  4.61255E+02  9.78547E+01  3.24701E+02
g vc_ws_702
s 0
f  137 138 139 140
f  137 138 142 141
f  139 138 142 143
f  140 139 143 144
f  140 137 141 144
f  141 142 143 144
v  1.32519E+02  4.74568E+01 -4.06149E+02
v  2.18493E+02  4.74568E+01 -4.06149E+02
v  2.18493E+02  4.74568E+01 -5.46639E+02
v  1.32519E+02  4.74568E+01 -5.46639E+02
v  1.32519E+02  2.69900E+01 -4.06149E+02
v  2.18493E+02  2.69900E+01 -4.06149E+02
v  2.18493E+02  2.69900E+01 -5.46639E+02
v  1.32519E+02  2.69900E+01 -5.46639E+02
g vc_ws_717
s 0
f  145 146 147 148
f  145 146 150 149
f  147 146 150 151
f  148 147 151 152
f  148 145 149 152
f  149 150 151 152
v -3.39808E+02  2.19389E+02  1.69623E+02
v -2.77431E+02  2.19389E+02  1.69623E+02
v -2.77431E+02  2.19389E+02  1.28856E+02
v -3.39808E+02  2.19389E+02  1.28856E+02
v -3.39808E+02  1.32299E+02  1.69623E+02
v -2.77431E+02  1.32299E+02  1.69623E+02
v -2.77431E+02  1.32299E+02  1.28856E+02
v -3.39808E+02  1.32299E+02  1.28856E+02
g vc_ws_721
s 0
f  153 154 155 156
f  153 154 158 157
f  155 154 158 159
f  156 155 159 160
f  156 153 157 160
f  157 158 159 160
v -8.87064E+02  1.72792E+02  2.70657E+02
v -7.83444E+02  1.72792E+02  2.70657E+02
v -7.83444E+02  1.72792E+02  1.98092E+02
v -8.87064E+02  1.72792E+02  1.98092E+02
v -8.87064E+02  1.47699E+02  2.70657E+02
v -7.83444E+02  1.47699E+02  2.70657E+02
v -7.83444E+02  1.47699E+02  1.98092E+02
v -8.87064E+02  1.47699E+02  1.98092E+02
g vc_ws_728
s 0
f  161 162 163 164
f  161 162 166 165
f  163 162 166 167
f  164 163 167 168
f  164 161 165 168
f  165 166 167 168
v  1.33036E+02  3.99862E+01 -5.46639E+02
v  2.18493E+02  3.99862E+01 -5.46639E+02
v  2.18493E+02  3.99862E+01 -6.46185E+02
v  1.33036E+02  3.99862E+01 -6.46185E+02
v  1.33036E+02  2.40321E+01 -5.46639E+02
v  2.18493E+02  2.40321E+01 -5.46639E+02
v  2.18493E+02  2.40321E+01 -6.46185E+02
v  1.33036E+02  2.40321E+01 -6.46185E+02
g vc_ws_731
s 0
f  169 170 171 172
f  169 170 174 173
f  171 170 174 175
f  172 171 175 176
f  172 169 173 176
f  173 174 175 176
v -3.77417E+01  1.47861E+02  1.98004E+01
v  6.77131E+01  1.47861E+02  1.98004E+01
v  6.77131E+01  1.47861E+02 -4.26943E+01
v -3.77417E+01  1.47861E+02 -4.26943E+01
v -3.77417E+01 -4.06287E+00  1.98004E+01
v  6.77131E+01 -4.06287E+00  1.98004E+01
v  6.77131E+01 -4.06287E+00 -4.26943E+01
v -3.77417E+01 -4.06287E+00 -4.26943E+01
g vc_ws_798
s 0
f  177 178 179 180
f  177 178 182 181
f  179 178 182 183
f  180 179 183 184
f  180 177 181 184
f  181 182 183 184
v -5.01661E+02  1.56081E+02 -1.20062E+02
v -4.31945E+02  1.56081E+02 -1.20062E+02
v -4.31945E+02  1.56081E+02 -2.43187E+02
v -5.01661E+02  1.56081E+02 -2.43187E+02
v -5.01661E+02  9.59985E+01 -1.20062E+02
v -4.31945E+02  9.59985E+01 -1.20062E+02
v -4.31945E+02  9.59985E+01 -2.43187E+02
v -5.01661E+02  9.59985E+01 -2.43187E+02
g vc_ws_862
s 0
f  185 186 187 188
f  185 186 190 189
f  187 186 190 191
f  188 187 191 192
f  188 185 189 192
f  189 190 191 192
v -4.68115E+02  1.68917E+02  2.63745E+01
v -3.39808E+02  1.68917E+02  2.63745E+01
v -3.39808E+02  1.68917E+02 -4.01597E+01
v -4.68115E+02  1.68917E+02 -4.01597E+01
v -4.68115E+02  1.00223E+02  2.63745E+01
v -3.39808E+02  1.00223E+02  2.63745E+01
v -3.39808E+02  1.00223E+02 -4.01597E+01
v -4.68115E+02  1.00223E+02 -4.01597E+01
g vc_ws_866
s 0
f  193 194 195 196
f  193 194 198 197
f  195 194 198 199
f  196 195 199 200
f  196 193 197 200
f  197 198 199 200
v -5.52064E+02  1.59685E+02  2.45266E+02
v -4.88676E+02  1.59685E+02  2.45266E+02
v -4.88676E+02  1.59685E+02  1.19950E+02
v -5.52064E+02  1.59685E+02  1.19950E+02
v -5.52064E+02  9.55532E+01  2.45266E+02
v -4.88676E+02  9.55532E+01  2.45266E+02
v -4.88676E+02  9.55532E+01  1.19950E+02
v -5.52064E+02  9.55532E+01  1.19950E+02
g vc_ws_870
s 0
f  201 202 203 204
f  201 202 206 205
f  203 202 206 207
f  204 203 207 208
f  204 201 205 208
f  205 206 207 208
v -8.21939E+02  1.83323E+02 -5.66185E+02
v -7.68694E+02  1.83323E+02 -5.66185E+02
v -7.68694E+02  1.83323E+02 -7.37277E+02
v -8.21939E+02  1.83323E+02 -7.37277E+02
v -8.21939E+02  1.11503E+02 -5.66185E+02
v -7.68694E+02  1.11503E+02 -5.66185E+02
v -7.68694E+02  1.11503E+02 -7.37277E+02
v -8.21939E+02  1.11503E+02 -7.37277E+02
g vc_ws_872
s 0
f  209 210 211 212
f  209 210 214 213
f  211 210 214 215
f  212 211 215 216
f  212 209 213 216
f  213 214 215 216
v -1.57381E+02  2.19389E+02  8.28251E+01
v -8.90872E+01  2.19389E+02  8.28251E+01
v -8.90872E+01  2.19389E+02  1.98004E+01
v -1.57381E+02  2.19389E+02  1.98004E+01
v -1.57381E+02  1.21525E+02  8.28251E+01
v -8.90872E+01  1.21525E+02  8.28251E+01
v -8.90872E+01  1.21525E+02  1.98004E+01
v -1.57381E+02  1.21525E+02  1.98004E+01
g vc_ws_887
s 0
f  217 218 219 220
f  217 218 222 221
f  219 218 222 223
f  220 219 223 224
f  220 217 221 224
f  221 222 223 224
v  4.69560E+02  1.36434E+02  1.55506E+02
v  5.39236E+02  1.36434E+02  1.55506E+02
v  5.39236E+02  1.36434E+02  7.97006E+01
v  4.69560E+02  1.36434E+02  7.97006E+01
v  4.69560E+02  7.86997E+01  1.55506E+02
v  5.39236E+02  7.86997E+01  1.55506E+02
v  5.39236E+02  7.86997E+01  7.97006E+01
v  4.69560E+02  7.86997E+01  7.97006E+01
g vc_ws_939
s 0
f  225 226 227 228
f  225 226 230 229
f  227 226 230 231
f  228 227 231 232
f  228 225 229 232
f  229 230 231 232
v -2.75505E+02  1.15830E+02 -4.55470E+02
v -2.35469E+02  1.15830E+02 -4.55470E+02
v -2.35469E+02  1.15830E+02 -5.66185E+02
v -2.75505E+02  1.15830E+02 -5.66185E+02
v -2.75505E+02  9.97373E+01 -4.55470E+02
v -2.35469E+02  9.97373E+01 -4.55470E+02
v -2.35469E+02  9.97373E+01 -5.66185E+02
v -2.75505E+02  9.97373E+01 -5.66185E+02
g vc_ws_1010
s 0
f  233 234 235 236
f  233 234 238 237
f  235 234 238 239
f  236 235 239 240
f  236 233 237 240
f  237 238 239 240
v -9.12617E+01  2.83057E+01 -9.38385E+02
v  7.80876E+01  2.83057E+01 -9.38385E+02
v  7.80876E+01  2.83057E+01 -1.03216E+03
v -9.12617E+01  2.83057E+01 -1.03216E+03
v -9.12617E+01  1.75210E+01 -9.38385E+02
v  7.80876E+01  1.75210E+01 -9.38385E+02
v  7.80876E+01  1.75210E+01 -1.03216E+03
v -9.12617E+01  1.75210E+01 -1.03216E+03
g vc_ws_1017
s 0
f  241 242 243 244
f  241 242 246 245
f  243 242 246 247
f  244 243 247 248
f  244 241 245 248
f  245 246 247 248
v -2.58290E+02  1.46147E+02 -4.01597E+01
v -2.02064E+02  1.46147E+02 -4.01597E+01
v -2.02064E+02  1.46147E+02 -1.03416E+02
v -2.58290E+02  1.46147E+02 -1.03416E+02
v -2.58290E+02  7.85765E+01 -4.01597E+01
v -2.02064E+02  7.85765E+01 -4.01597E+01
v -2.02064E+02  7.85765E+01 -1.03416E+02
v -2.58290E+02  7.85765E+01 -1.03416E+02
g vc_ws_1024
s 0
f  249 250 251 252
f  249 250 254 253
f  251 250 254 255
f  252 251 255 256
f  252 249 253 256
f  253 254 255 256
v  2.65423E+02  1.51371E+02  2.64831E+02
v  3.22936E+02  1.51371E+02  2.64831E+02
v  3.22936E+02  1.51371E+02  1.98612E+02
v  2.65423E+02  1.51371E+02  1.98612E+02
v  2.65423E+02  1.00035E+02  2.64831E+02
v  3.22936E+02  1.00035E+02  2.64831E+02
v  3.22936E+02  1.00035E+02  1.98612E+02
v  2.65423E+02  1.00035E+02  1.98612E+02
g vc_ws_1040
s 0
f  257 258 259 260
f  257 258 262 261
f  259 258 262 263
f  260 259 263 264
f  260 257 261 264
f  261 262 263 264
v  4.28750E+02  7.93278E+01 -8.75057E+01
v  4.90481E+02  7.93278E+01 -8.75057E+01
v  4.90481E+02  7.93278E+01 -1.61439E+02
v  4.28750E+02  7.93278E+01 -1.61439E+02
v  4.28750E+02  4.93311E+01 -8.75057E+01
v  4.90481E+02  4.93311E+01 -8.75057E+01
v  4.90481E+02  4.93311E+01 -1.61439E+02
v  4.28750E+02  4.93311E+01 -1.61439E+02
g vc_ws_1073
s 0
f  265 266 267 268
f  265 266 270 269
f  267 266 270 271
f  268 267 271 272
f  268 265 269 272
f  269 270 271 272
v  9.64516E+01  3.50089E+01 -6.46185E+02
v  1.91686E+02  3.50089E+01 -6.46185E+02
v  1.91686E+02  3.50089E+01 -7.45006E+02
v  9.64516E+01  3.50089E+01 -7.45006E+02
v  9.64516E+01  2.16252E+01 -6.46185E+02
v  1.91686E+02  2.16252E+01 -6.46185E+02
v  1.91686E+02  2.16252E+01 -7.45006E+02
v  9.64516E+01  2.16252E+01 -7.45006E+02
g vc_ws_1083
s 0
f  273 274 275 276
f  273 274 278 277
f  275 274 278 279
f  276 275 279 280
f  276 273 277 280
f  277 278 279 280
v  9.52778E+01  3.11544E+01 -7.45006E+02
v  1.91686E+02  3.11544E+01 -7.45006E+02
v  1.91686E+02  3.11544E+01 -8.46185E+02
v  9.52778E+01  3.11544E+01 -8.46185E+02
v  9.52778E+01  1.95719E+01 -7.45006E+02
v  1.91686E+02  1.95719E+01 -7.45006E+02
v  1.91686E+02  1.95719E+01 -8.46185E+02
v  9.52778E+01  1.95719E+01 -8.46185E+02
g vc_ws_1097
s 0
f  281 282 283 284
f  281 282 286 285
f  283 282 286 287
f  284 283 287 288
f  284 281 285 288
f  285 286 287 288
v -3.14736E+02  1.08188E+02 -1.68916E+02
v -2.36960E+02  1.08188E+02 -1.68916E+02
v -2.36960E+02  1.08188E+02 -2.06649E+02
v -3.14736E+02  1.08188E+02 -2.06649E+02
v -3.14736E+02  7.74929E+01 -1.68916E+02
v -2.36960E+02  7.74929E+01 -1.68916E+02
v -2.36960E+02  7.74929E+01 -2.06649E+02
v -3.14736E+02  7.74929E+01 -2.06649E+02
g vc_ws_1099
s 0
f  289 290 291 292
f  289 290 294 293
f  291 290 294 295
f  292 291 295 296
f  292 289 293 296
f  293 294 295 296
v  5.51368E+02  5.77836E+01 -1.61439E+02
v  5.92936E+02  5.77836E+01 -1.61439E+02
v  5.92936E+02  5.77836E+01 -2.89431E+02
v  5.51368E+02  5.77836E+01 -2.89431E+02
v  5.51368E+02  3.94492E+01 -1.61439E+02
v  5.92936E+02  3.94492E+01 -1.61439E+02
v  5.92936E+02  3.94492E+01 -2.89431E+02
v  5.51368E+02  3.94492E+01 -2.89431E+02
g vc_ws_1101
s 0
f  297 298 299 300
f  297 298 302 301
f  299 298 302 303
f  300 299 303 304
f  300 297 301 304
f  301 302 303 304
v  4.26852E+02  4.08994E+01 -5.85063E+02
v  5.30648E+02  4.08994E+01 -5.85063E+02
v  5.30648E+02  4.08994E+01 -6.46185E+02
v  4.26852E+02  4.08994E+01 -6.46185E+02
v  4.26852E+02  3.25938E+01 -5.85063E+02
v  5.30648E+02  3.25938E+01 -5.85063E+02
v  5.30648E+02  3.25938E+01 -6.46185E+02
v  4.26852E+02  3.25938E+01 -6.46185E+02
g vc_ws_1107
s 0
f  305 306 307 308
f  305 306 310 309
f  307 306 310 311
f  308 307 311 312
f  308 305 309 312
f  309 310 311 312
v  5.08270E+02  4.07236E+01 -6.46185E+02
v  5.70619E+02  4.07236E+01 -6.46185E+02
v  5.70619E+02  4.07236E+01 -7.43362E+02
v  5.08270E+02  4.07236E+01 -7.43362E+02
v  5.08270E+02  2.42724E+01 -6.46185E+02
v  5.70619E+02  2.42724E+01 -6.46185E+02
v  5.70619E+02  2.42724E+01 -7.43362E+02
v  5.08270E+02  2.42724E+01 -7.43362E+02
g vc_ws_1109
s 0
f  313 314 315 316
f  313 314 318 317
f  315 314 318 319
f  316 315 319 320
f  316 313 317 320
f  317 318 319 320
v  4.24527E+02  5.22849E+01 -4.04845E+02
v  4.94039E+02  5.22849E+01 -4.04845E+02
v  4.94039E+02  5.22849E+01 -4.65218E+02
v  4.24527E+02  5.22849E+01 -4.65218E+02
v  4.24527E+02  3.29813E+01 -4.04845E+02
v  4.94039E+02  3.29813E+01 -4.04845E+02
v  4.94039E+02  3.29813E+01 -4.65218E+02
v  4.24527E+02  3.29813E+01 -4.65218E+02
g vc_ws_1113
s 0
f  321 322 323 324
f  321 322 326 325
f  323 322 326 327
f  324 323 327 328
f  324 321 325 328
f  325 326 327 328
v  5.08270E+02  3.39821E+01 -7.43362E+02
v  5.69529E+02  3.39821E+01 -7.43362E+02
v  5.69529E+02  3.39821E+01 -8.41530E+02
v  5.08270E+02  3.39821E+01 -8.41530E+02
v  5.08270E+02  5.69960E+00 -7.43362E+02
v  5.69529E+02  5.69960E+00 -7.43362E+02
v  5.69529E+02  5.69960E+00 -8.41530E+02
v  5.08270E+02  5.69960E+00 -8.41530E+02
g vc_ws_1117
s 0
f  329 330 331 332
f  329 330 334 333
f  331 330 334 335
f  332 331 335 336
f  332 329 333 336
f  333 334 335 336
v  5.08124E+02  2.67634E+01 -8.41530E+02
v  5.68897E+02  2.67634E+01 -8.41530E+02
v  5.68897E+02  2.67634E+01 -9.41742E+02
v  5.08124E+02  2.67634E+01 -9.41742E+02
v  5.08124E+02  2.36062E+00 -8.41530E+02
v  5.68897E+02  2.36062E+00 -8.41530E+02
v  5.68897E+02  2.36062E+00 -9.41742E+02
v  5.08124E+02  2.36062E+00 -9.41742E+02
g vc_ws_1121
s 0
f  337 338 339 340
f  337 338 342 341
f  339 338 342 343
f  340 339 343 344
f  340 337 341 344
f  341 342 343 344
v  5.96782E+02  4.41207E+01 -5.26895E+02
v  6.28370E+02  4.41207E+01 -5.26895E+02
v  6.28370E+02  4.41207E+01 -6.46185E+02
v  5.96782E+02  4.41207E+01 -6.46185E+02
v  5.96782E+02  3.47013E+01 -5.26895E+02
v  6.28370E+02  3.47013E+01 -5.26895E+02
v  6.28370E+02  3.47013E+01 -6.46185E+02
v  5.96782E+02  3.47013E+01 -6.46185E+02
g vc_ws_1123
s 0
f  345 346 347 348
f  345 346 350 349
f  347 346 350 351
f  348 347 351 352
f  348 345 349 352
f  349 350 351 352
v  5.34727E+02  4.33962E+01 -4.65218E+02
v  5.95431E+02  4.33962E+01 -4.65218E+02
v  5.95431E+02  4.33962E+01 -5.26895E+02
v  5.34727E+02  4.33962E+01 -5.26895E+02
v  5.34727E+02  3.48189E+01 -4.65218E+02
v  5.95431E+02  3.48189E+01 -4.65218E+02
v  5.95431E+02  3.48189E+01 -5.26895E+02
v  5.34727E+02  3.48189E+01 -5.26895E+02
g vc_ws_1125
s 0
f  353 354 355 356
f  353 354 358 357
f  355 354 358 359
f  356 355 359 360
f  356 353 357 360
f  357 358 359 360
v  4.26852E+02  4.12724E+01 -4.65218E+02
v  4.81603E+02  4.12724E+01 -4.65218E+02
v  4.81603E+02  4.12724E+01 -5.26895E+02
v  4.26852E+02  4.12724E+01 -5.26895E+02
v  4.26852E+02  3.44027E+01 -4.65218E+02
v  4.81603E+02  3.44027E+01 -4.65218E+02
v  4.81603E+02  3.44027E+01 -5.26895E+02
v  4.26852E+02  3.44027E+01 -5.26895E+02
g vc_ws_1127
s 0
f  361 362 363 364
f  361 362 366 365
f  363 362 366 367
f  364 363 367 368
f  364 361 365 368
f  365 366 367 368
v -3.51085E+01  3.63182E+01 -6.46185E+02
v -3.43097E+00  3.63182E+01 -6.46185E+02
v -3.43097E+00  3.63182E+01 -7.25697E+02
v -3.51085E+01  3.63182E+01 -7.25697E+02
v -3.51085E+01  2.01442E+01 -6.46185E+02
v -3.43097E+00  2.01442E+01 -6.46185E+02
v -3.43097E+00  2.01442E+01 -7.25697E+02
v -3.51085E+01  2.01442E+01 -7.25697E+02
g vc_ws_1129
s 0
f  369 370 371 372
f  369 370 374 373
f  371 370 374 375
f  372 371 375 376
f  372 369 373 376
f  373 374 375 376
v  5.66496E+00  3.63060E+01 -6.18302E+02
v  4.46692E+01  3.63060E+01 -6.18302E+02
v  4.46692E+01  3.63060E+01 -6.46185E+02
v  5.66496E+00  3.63060E+01 -6.46185E+02
v  5.66496E+00  2.11775E+01 -6.18302E+02
v  4.46692E+01  2.11775E+01 -6.18302E+02
v  4.46692E+01  2.11775E+01 -6.46185E+02
v  5.66496E+00  2.11775E+01 -6.46185E+02
g vc_ws_1133
s 0
f  377 378 379 380
f  377 378 382 381
f  379 378 382 383
f  380 379 383 384
f  380 377 381 384
f  381 382 383 384
v -7.94701E+01  7.21934E+01 -1.69673E+02
v -4.35396E+00  7.21934E+01 -1.69673E+02
v -4.35396E+00  7.21934E+01 -2.48081E+02
v -7.94701E+01  7.21934E+01 -2.48081E+02
v -7.94701E+01 -4.06287E+00 -1.69673E+02
v -4.35396E+00 -4.06287E+00 -1.69673E+02
v -4.35396E+00 -4.06287E+00 -2.48081E+02
v -7.94701E+01 -4.06287E+00 -2.48081E+02
g vc_ws_1162
s 0
f  385 386 387 388
f  385 386 390 389
f  387 386 390 391
f  388 387 391 392
f  388 385 389 392
f  389 390 391 392
v -4.34520E+02  1.34861E+02 -3.45355E+02
v -3.54192E+02  1.34861E+02 -3.45355E+02
v -3.54192E+02  1.34861E+02 -4.55470E+02
v -4.34520E+02  1.34861E+02 -4.55470E+02
v -4.34520E+02  8.25957E+01 -3.45355E+02
v -3.54192E+02  8.25957E+01 -3.45355E+02
v -3.54192E+02  8.25957E+01 -4.55470E+02
v -4.34520E+02  8.25957E+01 -4.55470E+02
g vc_ws_1174
s 0
f  393 394 395 396
f  393 394 398 397
f  395 394 398 399
f  396 395 399 400
f  396 393 397 400
f  397 398 399 400
v -7.68694E+02  1.73386E+02 -6.50234E+02
v -6.81052E+02  1.73386E+02 -6.50234E+02
v -6.81052E+02  1.73386E+02 -7.37277E+02
v -7.68694E+02  1.73386E+02 -7.37277E+02
v -7.68694E+02  1.06403E+02 -6.50234E+02
v -6.81052E+02  1.06403E+02 -6.50234E+02
v -6.81052E+02  1.06403E+02 -7.37277E+02
v -7.68694E+02  1.06403E+02 -7.37277E+02
g vc_ws_1216
s 0
f  401 402 403 404
f  401 402 406 405
f  403 402 406 407
f  404 403 407 408
f  404 401 405 408
f  405 406 407 408
v -2.75930E+02  1.15873E+02 -3.02180E+02
v -2.35467E+02  1.15873E+02 -3.02180E+02
v -2.35467E+02  1.15873E+02 -4.55470E+02
v -2.75930E+02  1.15873E+02 -4.55470E+02
v -2.75930E+02  9.38671E+01 -3.02180E+02
v -2.35467E+02  9.38671E+01 -3.02180E+02
v -2.35467E+02  9.38671E+01 -4.55470E+02
v -2.75930E+02  9.38671E+01 -4.55470E+02
g vc_ws_1249
s 0
f  409 410 411 412
f  409 410 414 413
f  411 410 414 415
f  412 411 415 416
f  412 409 413 416
f  413 414 415 416
v  6.24147E+01  1.60313E+02  2.82131E+02
v  1.34777E+02  1.60313E+02  2.82131E+02
v  1.34777E+02  1.60313E+02  1.90594E+02
v  6.24147E+01  1.60313E+02  1.90594E+02
v  6.24147E+01  1.12292E+02  2.82131E+02
v  1.34777E+02  1.12292E+02  2.82131E+02
v  1.34777E+02  1.12292E+02  1.90594E+02
v  6.24147E+01  1.12292E+02  1.90594E+02
g vc_ws_1258
s 0
f  417 418 419 420
f  417 418 422 421
f  419 418 422 423
f  420 419 423 424
f  420 417 421 424
f  421 422 423 424
v -4.68115E+02  1.92178E+02  1.59443E+02
v -3.39808E+02  1.92178E+02  1.59443E+02
v -3.39808E+02  1.92178E+02  1.19973E+02
v -4.68115E+02  1.92178E+02  1.19973E+02
v -4.68115E+02  1.00223E+02  1.59443E+02
v -3.39808E+02  1.00223E+02  1.59443E+02
v -3.39808E+02  1.00223E+02  1.19973E+02
v -4.68115E+02  1.00223E+02  1.19973E+02
g vc_ws_1292
s 0
f  425 426 427 428
f  425 426 430 429
f  427 426 430 431
f  428 427 431 432
f  428 425 429 432
f  429 430 431 432
v -6.81052E+02  1.27976E+02 -6.49801E+02
v -6.01430E+02  1.27976E+02 -6.49801E+02
v -6.01430E+02  1.27976E+02 -7.12640E+02
v -6.81052E+02  1.27976E+02 -7.12640E+02
v -6.81052E+02  1.04417E+02 -6.49801E+02
v -6.01430E+02  1.04417E+02 -6.49801E+02
v -6.01430E+02  1.04417E+02 -7.12640E+02
v -6.81052E+02  1.04417E+02 -7.12640E+02
g vc_ws_1304
s 0
f  433 434 435 436
f  433 434 438 437
f  435 434 438 439
f  436 435 439 440
f  436 433 437 440
f  437 438 439 440
v -4.34117E+02  1.20679E+02 -4.55470E+02
v -3.54617E+02  1.20679E+02 -4.55470E+02
v -3.54617E+02  1.20679E+02 -5.10719E+02
v -4.34117E+02  1.20679E+02 -5.10719E+02
v -4.34117E+02  8.30893E+01 -4.55470E+02
v -3.54617E+02  8.30893E+01 -4.55470E+02
v -3.54617E+02  8.30893E+01 -5.10719E+02
v -4.34117E+02  8.30893E+01 -5.10719E+02
g vc_ws_1323
s 0
f  441 442 443 444
f  441 442 446 445
f  443 442 446 447
f  444 443 447 448
f  444 441 445 448
f  445 446 447 448
v -4.31945E+02  1.57395E+02 -1.20062E+02
v -3.73131E+02  1.57395E+02 -1.20062E+02
v -3.73131E+02  1.57395E+02 -1.80348E+02
v -4.31945E+02  1.57395E+02 -1.80348E+02
v -4.31945E+02  9.77653E+01 -1.20062E+02
v -3.73131E+02  9.77653E+01 -1.20062E+02
v -3.73131E+02  9.77653E+01 -1.80348E+02
v -4.31945E+02  9.77653E+01 -1.80348E+02
g vc_ws_1404
s 0
f  449 450 451 452
f  449 450 454 453
f  451 450 454 455
f  452 451 455 456
f  452 449 453 456
f  453 454 455 456
v -3.39808E+02  2.19389E+02  8.27511E+01
v -2.98625E+02  2.19389E+02  8.27511E+01
v -2.98625E+02  2.19389E+02  3.62510E+01
v -3.39808E+02  2.19389E+02  3.62510E+01
v -3.39808E+02  1.31983E+02  8.27511E+01
v -2.98625E+02  1.31983E+02  8.27511E+01
v -2.98625E+02  1.31983E+02  3.62510E+01
v -3.39808E+02  1.31983E+02  3.62510E+01
g vc_ws_1407
s 0
f  457 458 459 460
f  457 458 462 461
f  459 458 462 463
f  460 459 463 464
f  460 457 461 464
f  461 462 463 464
v -2.98625E+02  2.19389E+02  8.27511E+01
v -2.57603E+02  2.19389E+02  8.27511E+01
v -2.57603E+02  2.19389E+02  3.62510E+01
v -2.98625E+02  2.19389E+02  3.62510E+01
v -2.98625E+02  1.34230E+02  8.27511E+01
v -2.57603E+02  1.34230E+02  8.27511E+01
v -2.57603E+02  1.34230E+02  3.62510E+01
v -2.98625E+02  1.34230E+02  3.62510E+01
g vc_ws_1411
s 0
f  465 466 467 468
f  465 466 470 469
f  467 466 470 471
f  468 467 471 472
f  468 465 469 472
f  469 470 471 472
v  6.77131E+01  1.28255E+02 -4.29452E+01
v  9.04447E+01  1.28255E+02 -4.29452E+01
v  9.04447E+01  1.28255E+02 -1.69673E+02
v  6.77131E+01  1.28255E+02 -1.69673E+02
v  6.77131E+01  6.42424E+01 -4.29452E+01
v  9.04447E+01  6.42424E+01 -4.29452E+01
v  9.04447E+01  6.42424E+01 -1.69673E+02
v  6.77131E+01  6.42424E+01 -1.69673E+02
g vc_ws_1455
s 0
f  473 474 475 476
f  473 474 478 477
f  475 474 478 479
f  476 475 479 480
f  476 473 477 480
f  477 478 479 480
v -3.14736E+02  1.48919E+02 -8.34158E+01
v -2.58290E+02  1.48919E+02 -8.34158E+01
v -2.58290E+02  1.48919E+02 -1.25416E+02
v -3.14736E+02  1.48919E+02 -1.25416E+02
v -3.14736E+02  7.69369E+01 -8.34158E+01
v -2.58290E+02  7.69369E+01 -8.34158E+01
v -2.58290E+02  7.69369E+01 -1.25416E+02
v -3.14736E+02  7.69369E+01 -1.25416E+02
g vc_ws_1484
s 0
f  481 482 483 484
f  481 482 486 485
f  483 482 486 487
f  484 483 487 488
f  484 481 485 488
f  485 486 487 488
v -1.49217E+01  5.11376E+01 -4.49054E+02
v  4.48513E+01  5.11376E+01 -4.49054E+02
v  4.48513E+01  5.11376E+01 -5.46639E+02
v -1.49217E+01  5.11376E+01 -5.46639E+02
v -1.49217E+01  3.01644E+01 -4.49054E+02
v  4.48513E+01  3.01644E+01 -4.49054E+02
v  4.48513E+01  3.01644E+01 -5.46639E+02
v -1.49217E+01  3.01644E+01 -5.46639E+02
g vc_ws_1507
s 0
f  489 490 491 492
f  489 490 494 493
f  491 490 494 495
f  492 491 495 496
f  492 489 493 496
f  493 494 495 496
v  3.99604E+02  1.17401E+02  2.47493E+01
v  4.71257E+02  1.17401E+02  2.47493E+01
v  4.71257E+02  1.17401E+02 -9.88779E+00
v  3.99604E+02  1.17401E+02 -9.88779E+00
v  3.99604E+02  6.39607E+01  2.47493E+01
v  4.71257E+02  6.39607E+01  2.47493E+01
v  4.71257E+02  6.39607E+01 -9.88779E+00
v  3.99604E+02  6.39607E+01 -9.88779E+00
g vc_ws_1533
s 0
f  497 498 499 500
f  497 498 502 501
f  499 498 502 503
f  500 499 503 504
f  500 497 501 504
f  501 502 503 504
v -6.17491E+00  2.97357E+01 -8.46185E+02
v  7.80876E+01  2.97357E+01 -8.46185E+02
v  7.80876E+01  2.97357E+01 -9.38385E+02
v -6.17491E+00  2.97357E+01 -9.38385E+02
v -6.17491E+00  2.05298E+01 -8.46185E+02
v  7.80876E+01  2.05298E+01 -8.46185E+02
v  7.80876E+01  2.05298E+01 -9.38385E+02
v -6.17491E+00  2.05298E+01 -9.38385E+02
g vc_ws_1569
s 0
f  505 506 507 508
f  505 506 510 509
f  507 506 510 511
f  508 507 511 512
f  508 505 509 512
f  509 510 511 512
v  5.08734E+01  6.06550E+01 -3.56185E+02
v  1.32519E+02  6.06550E+01 -3.56185E+02
v  1.32519E+02  6.06550E+01 -4.02410E+02
v  5.08734E+01  6.06550E+01 -4.02410E+02
v  5.08734E+01  3.81656E+01 -3.56185E+02
v  1.32519E+02  3.81656E+01 -3.56185E+02
v  1.32519E+02  3.81656E+01 -4.02410E+02
v  5.08734E+01  3.81656E+01 -4.02410E+02
g vc_ws_1593
s 0
f  513 514 515 516
f  513 514 518 517
f  515 514 518 519
f  516 515 519 520
f  516 513 517 520
f  517 518 519 520
v  2.10013E+02  1.51299E+02  1.96675E+02
v  2.65423E+02  1.51299E+02  1.96675E+02
v  2.65423E+02  1.51299E+02  1.64276E+02
v  2.10013E+02  1.51299E+02  1.64276E+02
v  2.10013E+02  1.11339E+02  1.96675E+02
v  2.65423E+02  1.11339E+02  1.96675E+02
v  2.65423E+02  1.11339E+02  1.64276E+02
v  2.10013E+02  1.11339E+02  1.64276E+02
g vc_ws_1632
s 0
f  521 522 523 524
f  521 522 526 525
f  523 522 526 527
f  524 523 527 528
f  524 521 525 528
f  525 526 527 528
v -2.57603E+02  2.19389E+02  1.28856E+02
v -2.02064E+02  2.19389E+02  1.28856E+02
v -2.02064E+02  2.19389E+02  1.13251E+02
v -2.57603E+02  2.19389E+02  1.13251E+02
v -2.57603E+02  1.37771E+02  1.28856E+02
v -2.02064E+02  1.37771E+02  1.28856E+02
v -2.02064E+02  1.37771E+02  1.13251E+02
v -2.57603E+02  1.37771E+02  1.13251E+02
g vc_ws_1633
s 0
f  529 530 531 532
f  529 530 534 533
f  531 530 534 535
f  532 531 535 536
f  532 529 533 536
f  533 534 535 536
v -2.02064E+02  9.51864E+01 -1.30023E+02
v -1.55806E+02  9.51864E+01 -1.30023E+02
v -1.55806E+02  9.51864E+01 -1.69673E+02
v -2.02064E+02  9.51864E+01 -1.69673E+02
v -2.02064E+02  6.94311E+01 -1.30023E+02
v -1.55806E+02  6.94311E+01 -1.30023E+02
v -1.55806E+02  6.94311E+01 -1.69673E+02
v -2.02064E+02  6.94311E+01 -1.69673E+02
g vc_ws_1657
s 0
f  537 538 539 540
f  537 538 542 541
f  539 538 542 543
f  540 539 543 544
f  540 537 541 544
f  541 542 543 544
v -3.43097E+00  2.97357E+01 -7.94999E+02
v  9.52778E+01  2.97357E+01 -7.94999E+02
v  9.52778E+01  2.97357E+01 -8.46185E+02
v -3.43097E+00  2.97357E+01 -8.46185E+02
v -3.43097E+00  2.28744E+01 -7.94999E+02
v  9.52778E+01  2.28744E+01 -7.94999E+02
v  9.52778E+01  2.28744E+01 -8.46185E+02
v -3.43097E+00  2.28744E+01 -8.46185E+02
g vc_ws_1669
s 0
f  545 546 547 548
f  545 546 550 549
f  547 546 550 551
f  548 547 551 552
f  548 545 549 552
f  549 550 551 552
v -3.14736E+02  1.47776E+02 -5.51148E+01
v -2.58290E+02  1.47776E+02 -5.51148E+01
v -2.58290E+02  1.47776E+02 -8.34158E+01
v -3.14736E+02  1.47776E+02 -8.34158E+01
v -3.14736E+02  1.15533E+02 -5.51148E+01
v -2.58290E+02  1.15533E+02 -5.51148E+01
v -2.58290E+02  1.15533E+02 -8.34158E+01
v -3.14736E+02  1.15533E+02 -8.34158E+01
g vc_ws_1672
s 0
f  553 554 555 556
f  553 554 558 557
f  555 554 558 559
f  556 555 559 560
f  556 553 557 560
f  557 558 559 560
v  4.26852E+02  4.12724E+01 -5.26895E+02
v  4.79510E+02  4.12724E+01 -5.26895E+02
v  4.79510E+02  4.12724E+01 -5.85063E+02
v  4.26852E+02  4.12724E+01 -5.85063E+02
v  4.26852E+02  3.50004E+01 -5.26895E+02
v  4.79510E+02  3.50004E+01 -5.26895E+02
v  4.79510E+02  3.50004E+01 -5.85063E+02
v  4.26852E+02  3.50004E+01 -5.85063E+02
g vc_ws_1681
s 0
f  561 562 563 564
f  561 562 566 565
f  563 562 566 567
f  564 563 567 568
f  564 561 565 568
f  565 566 567 568
v -4.81611E+02  1.28745E+02 -5.66185E+02
v -4.39592E+02  1.28745E+02 -5.66185E+02
v -4.39592E+02  1.28745E+02 -5.92879E+02
v -4.81611E+02  1.28745E+02 -5.92879E+02
v -4.81611E+02  1.11649E+02 -5.66185E+02
v -4.39592E+02  1.11649E+02 -5.66185E+02
v -4.39592E+02  1.11649E+02 -5.92879E+02
v -4.81611E+02  1.11649E+02 -5.92879E+02
g vc_ws_1686
s 0
f  569 570 571 572
f  569 570 574 573
f  571 570 574 575
f  572 571 575 576
f  572 569 573 576
f  573 574 575 576
v  1.71176E+02  1.88948E+01 -1.16270E+03
v  2.57603E+02  1.88948E+01 -1.16270E+03
v  2.57603E+02  1.88948E+01 -1.22119E+03
v  1.71176E+02  1.88948E+01 -1.22119E+03
v  1.71176E+02  7.01191E+00 -1.16270E+03
v  2.57603E+02  7.01191E+00 -1.16270E+03
v  2.57603E+02  7.01191E+00 -1.22119E+03
v  1.71176E+02  7.01191E+00 -1.22119E+03
g vc_ws_1687
s 0
f  577 578 579 580
f  577 578 582 581
f  579 578 582 583
f  580 579 583 584
f  580 577 581 584
f  581 582 583 584
v  4.52266E+02  5.10435E+01 -3.56185E+02
v  4.94027E+02  5.10435E+01 -3.56185E+02
v  4.94027E+02  5.10435E+01 -4.04845E+02
v  4.52266E+02  5.10435E+01 -4.04845E+02
v  4.52266E+02  3.53577E+01 -3.56185E+02
v  4.94027E+02  3.53577E+01 -3.56185E+02
v  4.94027E+02  3.53577E+01 -4.04845E+02
v  4.52266E+02  3.53577E+01 -4.04845E+02
g vc_ws_1689
s 0
f  585 586 587 588
f  585 586 590 589
f  587 586 590 591
f  588 587 591 592
f  588 585 589 592
f  589 590 591 592
v -7.42189E+02  1.61907E+02 -5.30479E+02
v -7.17686E+02  1.61907E+02 -5.30479E+02
v -7.17686E+02  1.61907E+02 -5.66185E+02
v -7.42189E+02  1.61907E+02 -5.66185E+02
v -7.42189E+02  1.06403E+02 -5.30479E+02
v -7.17686E+02  1.06403E+02 -5.30479E+02
v -7.17686E+02  1.06403E+02 -5.66185E+02
v -7.42189E+02  1.06403E+02 -5.66185E+02
g vc_ws_1692
s 0
f  593 594 595 596
f  593 594 598 597
f  595 594 598 599
f  596 595 599 600
f  596 593 597 600
f  597 598 599 600
v -1.16728E+02  2.96231E+01 -7.73494E+02
v -7.64777E+01  2.96231E+01 -7.73494E+02
v -7.64777E+01  2.96231E+01 -8.46185E+02
v -1.16728E+02  2.96231E+01 -8.46185E+02
v -1.16728E+02  2.24071E+01 -7.73494E+02
v -7.64777E+01  2.24071E+01 -7.73494E+02
v -7.64777E+01  2.24071E+01 -8.46185E+02
v -1.16728E+02  2.24071E+01 -8.46185E+02
g vc_ws_1695
s 0
f  601 602 603 604
f  601 602 606 605
f  603 602 606 607
f  604 603 607 608
f  604 601 605 608
f  605 606 607 608
v -6.28735E+01  2.77988E+01 -7.25697E+02
v -3.43097E+00  2.77988E+01 -7.25697E+02
v -3.43097E+00  2.77988E+01 -7.73494E+02
v -6.28735E+01  2.77988E+01 -7.73494E+02
v -6.28735E+01  2.07434E+01 -7.25697E+02
v -3.43097E+00  2.07434E+01 -7.25697E+02
v -3.43097E+00  2.07434E+01 -7.73494E+02
v -6.28735E+01  2.07434E+01 -7.73494E+02
g vc_ws_1697
s 0
f  609 610 611 612
f  609 610 614 613
f  611 610 614 615
f  612 611 615 616
f  612 609 613 616
f  613 614 615 616
v  9.01692E+01  3.69321E+01 -5.46639E+02
v  1.33036E+02  3.69321E+01 -5.46639E+02
v  1.33036E+02  3.69321E+01 -5.95702E+02
v  9.01692E+01  3.69321E+01 -5.95702E+02
v  9.01692E+01  2.21529E+01 -5.46639E+02
v  1.33036E+02  2.21529E+01 -5.46639E+02
v  1.33036E+02  2.21529E+01 -5.95702E+02
v  9.01692E+01  2.21529E+01 -5.95702E+02
g vc_ws_1699
s 0
f  617 618 619 620
f  617 618 622 621
f  619 618 622 623
f  620 619 623 624
f  620 617 621 624
f  621 622 623 624
v  9.01692E+01  3.51305E+01 -5.95702E+02
v  1.33036E+02  3.51305E+01 -5.95702E+02
v  1.33036E+02  3.51305E+01 -6.46185E+02
v  9.01692E+01  3.51305E+01 -6.46185E+02
v  9.01692E+01  2.18180E+01 -5.95702E+02
v  1.33036E+02  2.18180E+01 -5.95702E+02
v  1.33036E+02  2.18180E+01 -6.46185E+02
v  9.01692E+01  2.18180E+01 -6.46185E+02
g vc_ws_1701
s 0
f  625 626 627 628
f  625 626 630 629
f  627 626 630 631
f  628 627 631 632
f  628 625 629 632
f  629 630 631 632
v  5.08124E+02  1.41933E+01 -9.41742E+02
v  5.69624E+02  1.41933E+01 -9.41742E+02
v  5.69624E+02  1.41933E+01 -9.91845E+02
v  5.08124E+02  1.41933E+01 -9.91845E+02
v  5.08124E+02  9.56435E-01 -9.41742E+02
v  5.69624E+02  9.56435E-01 -9.41742E+02
v  5.69624E+02  9.56435E-01 -9.91845E+02
v  5.08124E+02  9.56435E-01 -9.91845E+02
g vc_ws_1703
s 0
f  633 634 635 636
f  633 634 638 637
f  635 634 638 639
f  636 635 639 640
f  636 633 637 640
f  637 638 639 640
v  4.11162E+02  1.00085E+01 -1.09239E+03
v  4.65282E+02  1.00085E+01 -1.09239E+03
v  4.65282E+02  1.00085E+01 -1.14289E+03
v  4.11162E+02  1.00085E+01 -1.14289E+03
v  4.11162E+02  9.56272E-01 -1.09239E+03
v  4.65282E+02  9.56272E-01 -1.09239E+03
v  4.65282E+02  9.56272E-01 -1.14289E+03
v  4.11162E+02  9.56272E-01 -1.14289E+03
g vc_ws_1705
s 0
f  641 642 643 644
f  641 642 646 645
f  643 642 646 647
f  644 643 647 648
f  644 641 645 648
f  645 646 647 648
v  5.36117E+02  9.86476E+00 -1.06775E+03
v  5.96928E+02  9.86476E+00 -1.06775E+03
v  5.96928E+02  9.86476E+00 -1.09425E+03
v  5.36117E+02  9.86476E+00 -1.09425E+03
v  5.36117E+02  1.36233E+00 -1.06775E+03
v  5.96928E+02  1.36233E+00 -1.06775E+03
v  5.96928E+02  1.36233E+00 -1.09425E+03
v  5.36117E+02  1.36233E+00 -1.09425E+03
g vc_ws_1707
s 0
f  649 650 651 652
f  649 650 654 653
f  651 650 654 655
f  652 651 655 656
f  652 649 653 656
f  653 654 655 656
v  5.00769E+02  8.21180E+00 -1.09239E+03
v  5.36117E+02  8.21180E+00 -1.09239E+03
v  5.36117E+02  8.21180E+00 -1.14289E+03
v  5.00769E+02  8.21180E+00 -1.14289E+03
v  5.00769E+02  3.40387E-01 -1.09239E+03
v  5.36117E+02  3.40387E-01 -1.09239E+03
v  5.36117E+02  3.40387E-01 -1.14289E+03
v  5.00769E+02  3.40387E-01 -1.14289E+03
g vc_ws_1709
s 0
f  657 658 659 660
f  657 658 662 661
f  659 658 662 663
f  660 659 663 664
f  660 657 661 664
f  661 662 663 664
v  4.65282E+02  6.08391E+00 -1.09239E+03
v  5.00769E+02  6.08391E+00 -1.09239E+03
v  5.00769E+02  6.08391E+00 -1.14289E+03
v  4.65282E+02  6.08391E+00 -1.14289E+03
v  4.65282E+02  6.79751E-01 -1.09239E+03
v  5.00769E+02  6.79751E-01 -1.09239E+03
v  5.00769E+02  6.79751E-01 -1.14289E+03
v  4.65282E+02  6.79751E-01 -1.14289E+03
g vc_ws_1711
s 0
f  665 666 667 668
f  665 666 670 669
f  667 666 670 671
f  668 667 671 672
f  668 665 669 672
f  669 670 671 672
v  5.96928E+02  1.54988E+01 -1.04214E+03
v  6.15156E+02  1.54988E+01 -1.04214E+03
v  6.15156E+02  1.54988E+01 -1.05930E+03
v  5.96928E+02  1.54988E+01 -1.05930E+03
v  5.96928E+02  1.73281E+00 -1.04214E+03
v  6.15156E+02  1.73281E+00 -1.04214E+03
v  6.15156E+02  1.73281E+00 -1.05930E+03
v  5.96928E+02  1.73281E+00 -1.05930E+03
g vc_ws_1713
s 0
f  673 674 675 676
f  673 674 678 677
f  675 674 678 679
f  676 675 679 680
f  676 673 677 680
f  677 678 679 680
v -4.68115E+02  1.75592E+02  7.32654E+01
v -3.39808E+02  1.75592E+02  7.32654E+01
v -3.39808E+02  1.75592E+02  2.63745E+01
v -4.68115E+02  1.75592E+02  2.63745E+01
v -4.68115E+02  1.00223E+02  7.32654E+01
v -3.39808E+02  1.00223E+02  7.32654E+01
v -3.39808E+02  1.00223E+02  2.63745E+01
v -4.68115E+02  1.00223E+02  2.63745E+01
g vc_ws_1752
s 0
f  681 682 683 684
f  681 682 686 685
f  683 682 686 687
f  684 683 687 688
f  684 681 685 688
f  685 686 687 688
v -3.71564E+01  1.53715E+02  7.66842E+01
v  6.24147E+01  1.53715E+02  7.66842E+01
v  6.24147E+01  1.53715E+02  1.98004E+01
v -3.71564E+01  1.53715E+02  1.98004E+01
v -3.71564E+01  1.22056E+02  7.66842E+01
v  6.24147E+01  1.22056E+02  7.66842E+01
v  6.24147E+01  1.22056E+02  1.98004E+01
v -3.71564E+01  1.22056E+02  1.98004E+01
g vc_ws_1782
s 0
f  689 690 691 692
f  689 690 694 693
f  691 690 694 695
f  692 691 695 696
f  692 689 693 696
f  693 694 695 696
v -4.34520E+02  1.43845E+02 -2.92927E+02
v -3.52806E+02  1.43845E+02 -2.92927E+02
v -3.52806E+02  1.43845E+02 -3.45355E+02
v -4.34520E+02  1.43845E+02 -3.45355E+02
v -4.34520E+02  1.01423E+02 -2.92927E+02
v -3.52806E+02  1.01423E+02 -2.92927E+02
v -3.52806E+02  1.01423E+02 -3.45355E+02
v -4.34520E+02  1.01423E+02 -3.45355E+02
g vc_ws_1794
s 0
f  697 698 699 700
f  697 698 702 701
f  699 698 702 703
f  700 699 703 704
f  700 697 701 704
f  701 702 703 704
v -6.11669E+02  1.48385E+02  2.07462E+01
v -5.52064E+02  1.48385E+02  2.07462E+01
v -5.52064E+02  1.48385E+02 -4.79819E+01
v -6.11669E+02  1.48385E+02 -4.79819E+01
v -6.11669E+02  9.76789E+01  2.07462E+01
v -5.52064E+02  9.76789E+01  2.07462E+01
v -5.52064E+02  9.76789E+01 -4.79819E+01
v -6.11669E+02  9.76789E+01 -4.79819E+01
g vc_ws_1800
s 0
f  705 706 707 708
f  705 706 710 709
f  707 706 710 711
f  708 707 711 712
f  708 705 709 712
f  709 710 711 712
v -6.58172E+02  1.89120E+02 -4.79819E+01
v -6.02902E+02  1.89120E+02 -4.79819E+01
v -6.02902E+02  1.89120E+02 -1.13003E+02
v -6.58172E+02  1.89120E+02 -1.13003E+02
v -6.58172E+02  9.76789E+01 -4.79819E+01
v -6.02902E+02  9.76789E+01 -4.79819E+01
v -6.02902E+02  9.76789E+01 -1.13003E+02
v -6.58172E+02  9.76789E+01 -1.13003E+02
g vc_ws_1848
s 0
f  713 714 715 716
f  713 714 718 717
f  715 714 718 719
f  716 715 719 720
f  716 713 717 720
f  717 718 719 720
v -9.71505E+01  1.59989E+02  1.98004E+01
v -3.77417E+01  1.59989E+02  1.98004E+01
v -3.77417E+01  1.59989E+02 -2.66040E+01
v -9.71505E+01  1.59989E+02 -2.66040E+01
v -9.71505E+01  7.50084E+01  1.98004E+01
v -3.77417E+01  7.50084E+01  1.98004E+01
v -3.77417E+01  7.50084E+01 -2.66040E+01
v -9.71505E+01  7.50084E+01 -2.66040E+01
g vc_ws_1872
s 0
f  721 722 723 724
f  721 722 726 725
f  723 722 726 727
f  724 723 727 728
f  724 721 725 728
f  725 726 727 728
v -3.52806E+02  1.12810E+02 -2.43187E+02
v -2.75930E+02  1.12810E+02 -2.43187E+02
v -2.75930E+02  1.12810E+02 -2.86572E+02
v -3.52806E+02  1.12810E+02 -2.86572E+02
v -3.52806E+02  9.77627E+01 -2.43187E+02
v -2.75930E+02  9.77627E+01 -2.43187E+02
v -2.75930E+02  9.77627E+01 -2.86572E+02
v -3.52806E+02  9.77627E+01 -2.86572E+02
g vc_ws_1877
s 0
f  729 730 731 732
f  729 730 734 733
f  731 730 734 735
f  732 731 735 736
f  732 729 733 736
f  733 734 735 736
v -5.52064E+02  1.38793E+02  7.26943E+01
v -4.93400E+02  1.38793E+02  7.26943E+01
v -4.93400E+02  1.38793E+02  2.32596E+01
v -5.52064E+02  1.38793E+02  2.32596E+01
v -5.52064E+02  8.92446E+01  7.26943E+01
v -4.93400E+02  8.92446E+01  7.26943E+01
v -4.93400E+02  8.92446E+01  2.32596E+01
v -5.52064E+02  8.92446E+01  2.32596E+01
g vc_ws_1892
s 0
f  737 738 739 740
f  737 738 742 741
f  739 738 742 743
f  740 739 743 744
f  740 737 741 744
f  741 742 743 744
v -7.26830E+02  1.85244E+02  2.70657E+02
v -6.83043E+02  1.85244E+02  2.70657E+02
v -6.83043E+02  1.85244E+02  1.61480E+02
v -7.26830E+02  1.85244E+02  1.61480E+02
v -7.26830E+02  1.40958E+02  2.70657E+02
v -6.83043E+02  1.40958E+02  2.70657E+02
v -6.83043E+02  1.40958E+02  1.61480E+02
v -7.26830E+02  1.40958E+02  1.61480E+02
g vc_ws_1894
s 0
f  745 746 747 748
f  745 746 750 749
f  747 746 750 751
f  748 747 751 752
f  748 745 749 752
f  749 750 751 752
v  1.34777E+02  1.55640E+02  2.92945E+02
v  1.67566E+02  1.55640E+02  2.92945E+02
v  1.67566E+02  1.55640E+02  1.96675E+02
v  1.34777E+02  1.55640E+02  1.96675E+02
v  1.34777E+02  1.12292E+02  2.92945E+02
v  1.67566E+02  1.12292E+02  2.92945E+02
v  1.67566E+02  1.12292E+02  1.96675E+02
v  1.34777E+02  1.12292E+02  1.96675E+02
g vc_ws_1916
s 0
f  753 754 755 756
f  753 754 758 757
f  755 754 758 759
f  756 755 759 760
f  756 753 757 760
f  757 758 759 760
v -7.83444E+02  1.68391E+02  2.70657E+02
v -7.26830E+02  1.68391E+02  2.70657E+02
v -7.26830E+02  1.68391E+02  1.91338E+02
v -7.83444E+02  1.68391E+02  1.91338E+02
v -7.83444E+02  1.45034E+02  2.70657E+02
v -7.26830E+02  1.45034E+02  2.70657E+02
v -7.26830E+02  1.45034E+02  1.91338E+02
v -7.83444E+02  1.45034E+02  1.91338E+02
g vc_ws_1924
s 0
f  761 762 763 764
f  761 762 766 765
f  763 762 766 767
f  764 763 767 768
f  764 761 765 768
f  765 766 767 768
v  7.02845E+01  7.55887E+01 -2.05665E+02
v  1.13359E+02  7.55887E+01 -2.05665E+02
v  1.13359E+02  7.55887E+01 -2.92254E+02
v  7.02845E+01  7.55887E+01 -2.92254E+02
v  7.02845E+01  4.52106E+01 -2.05665E+02
v  1.13359E+02  4.52106E+01 -2.05665E+02
v  1.13359E+02  4.52106E+01 -2.92254E+02
v  7.02845E+01  4.52106E+01 -2.92254E+02
g vc_ws_1947
s 0
f  769 770 771 772
f  769 770 774 773
f  771 770 774 775
f  772 771 775 776
f  772 769 773 776
f  773 774 775 776
v -1.50368E+01  1.82914E+02  2.36264E+02
v  6.24147E+01  1.82914E+02  2.36264E+02
v  6.24147E+01  1.82914E+02  2.02224E+02
v -1.50368E+01  1.82914E+02  2.02224E+02
v -1.50368E+01  1.24190E+02  2.36264E+02
v  6.24147E+01  1.24190E+02  2.36264E+02
v  6.24147E+01  1.24190E+02  2.02224E+02
v -1.50368E+01  1.24190E+02  2.02224E+02
g vc_ws_2020
s 0
f  777 778 779 780
f  777 778 782 781
f  779 778 782 783
f  780 779 783 784
f  780 777 781 784
f  781 782 783 784
v  4.71257E+02  1.31026E+02  7.97006E+01
v  5.39236E+02  1.31026E+02  7.97006E+01
v  5.39236E+02  1.31026E+02  5.26682E+01
v  4.71257E+02  1.31026E+02  5.26682E+01
v  4.71257E+02  7.51737E+01  7.97006E+01
v  5.39236E+02  7.51737E+01  7.97006E+01
v  5.39236E+02  7.51737E+01  5.26682E+01
v  4.71257E+02  7.51737E+01  5.26682E+01
g vc_ws_2025
s 0
f  785 786 787 788
f  785 786 790 789
f  787 786 790 791
f  788 787 791 792
f  788 785 789 792
f  789 790 791 792
v  2.00227E+02  1.46098E+02  3.29775E+02
v  2.32889E+02  1.46098E+02  3.29775E+02
v  2.32889E+02  1.46098E+02  2.63717E+02
v  2.00227E+02  1.46098E+02  2.63717E+02
v  2.00227E+02  1.06763E+02  3.29775E+02
v  2.32889E+02  1.06763E+02  3.29775E+02
v  2.32889E+02  1.06763E+02  2.63717E+02
v  2.00227E+02  1.06763E+02  2.63717E+02
g vc_ws_2046
s 0
f  793 794 795 796
f  793 794 798 797
f  795 794 798 799
f  796 795 799 800
f  796 793 797 800
f  797 798 799 800
v -1.57381E+02  2.19389E+02  1.45196E+02
v -1.22845E+02  2.19389E+02  1.45196E+02
v -1.22845E+02  2.19389E+02  1.14325E+02
v -1.57381E+02  2.19389E+02  1.14325E+02
v -1.57381E+02  1.35175E+02  1.45196E+02
v -1.22845E+02  1.35175E+02  1.45196E+02
v -1.22845E+02  1.35175E+02  1.14325E+02
v -1.57381E+02  1.35175E+02  1.14325E+02
g vc_ws_2053
s 0
f  801 802 803 804
f  801 802 806 805
f  803 802 806 807
f  804 803 807 808
f  804 801 805 808
f  805 806 807 808
v -1.22845E+02  2.19389E+02  1.45196E+02
v -8.90872E+01  2.19389E+02  1.45196E+02
v -8.90872E+01  2.19389E+02  1.14325E+02
v -1.22845E+02  2.19389E+02  1.14325E+02
v -1.22845E+02  1.30362E+02  1.45196E+02
v -8.90872E+01  1.30362E+02  1.45196E+02
v -8.90872E+01  1.30362E+02  1.14325E+02
v -1.22845E+02  1.30362E+02  1.14325E+02
g vc_ws_2067
s 0
f  809 810 811 812
f  809 810 814 813
f  811 810 814 815
f  812 811 815 816
f  812 809 813 816
f  813 814 815 816
v -2.02064E+02  2.19389E+02  1.28519E+02
v -1.79564E+02  2.19389E+02  1.28519E+02
v -1.79564E+02  2.19389E+02  8.33004E+01
v -2.02064E+02  2.19389E+02  8.33004E+01
v -2.02064E+02  1.38973E+02  1.28519E+02
v -1.79564E+02  1.38973E+02  1.28519E+02
v -1.79564E+02  1.38973E+02  8.33004E+01
v -2.02064E+02  1.38973E+02  8.33004E+01
g vc_ws_2085
s 0
f  817 818 819 820
f  817 818 822 821
f  819 818 822 823
f  820 819 823 824
f  820 817 821 824
f  821 822 823 824
v -7.94701E+01  6.31277E+01 -2.48081E+02
v -3.97012E+00  6.31277E+01 -2.48081E+02
v -3.97012E+00  6.31277E+01 -2.92254E+02
v -7.94701E+01  6.31277E+01 -2.92254E+02
v -7.94701E+01  3.68285E+01 -2.48081E+02
v -3.97012E+00  3.68285E+01 -2.48081E+02
v -3.97012E+00  3.68285E+01 -2.92254E+02
v -7.94701E+01  3.68285E+01 -2.92254E+02
g vc_ws_2101
s 0
f  825 826 827 828
f  825 826 830 829
f  827 826 830 831
f  828 827 831 832
f  828 825 829 832
f  829 830 831 832
v -6.31710E+02  1.42780E+02 -1.13003E+02
v -6.02902E+02  1.42780E+02 -1.13003E+02
v -6.02902E+02  1.42780E+02 -1.78278E+02
v -6.31710E+02  1.42780E+02 -1.78278E+02
v -6.31710E+02  1.00342E+02 -1.13003E+02
v -6.02902E+02  1.00342E+02 -1.13003E+02
v -6.02902E+02  1.00342E+02 -1.78278E+02
v -6.31710E+02  1.00342E+02 -1.78278E+02
g vc_ws_2106
s 0
f  833 834 835 836
f  833 834 838 837
f  835 834 838 839
f  836 835 839 840
f  836 833 837 840
f  837 838 839 840
v -1.46825E+02  9.22040E+01 -8.45228E+01
v -9.71505E+01  9.22040E+01 -8.45228E+01
v -9.71505E+01  9.22040E+01 -1.30023E+02
v -1.46825E+02  9.22040E+01 -1.30023E+02
v -1.46825E+02  5.97220E+01 -8.45228E+01
v -9.71505E+01  5.97220E+01 -8.45228E+01
v -9.71505E+01  5.97220E+01 -1.30023E+02
v -1.46825E+02  5.97220E+01 -1.30023E+02
g vc_ws_2121
s 0
f  841 842 843 844
f  841 842 846 845
f  843 842 846 847
f  844 843 847 848
f  844 841 845 848
f  845 846 847 848
v -7.85665E+02  1.79341E+02 -4.88766E+02
v -7.42189E+02  1.79341E+02 -4.88766E+02
v -7.42189E+02  1.79341E+02 -5.32843E+02
v -7.85665E+02  1.79341E+02 -5.32843E+02
v -7.85665E+02  1.06403E+02 -4.88766E+02
v -7.42189E+02  1.06403E+02 -4.88766E+02
v -7.42189E+02  1.06403E+02 -5.32843E+02
v -7.85665E+02  1.06403E+02 -5.32843E+02
g vc_ws_2126
s 0
f  849 850 851 852
f  849 850 854 853
f  851 850 854 855
f  852 851 855 856
f  852 849 853 856
f  853 854 855 856
v -3.71744E+02  1.54424E+02 -2.11621E+02
v -3.14736E+02  1.54424E+02 -2.11621E+02
v -3.14736E+02  1.54424E+02 -2.43187E+02
v -3.71744E+02  1.54424E+02 -2.43187E+02
v -3.71744E+02  9.96071E+01 -2.11621E+02
v -3.14736E+02  9.96071E+01 -2.11621E+02
v -3.14736E+02  9.96071E+01 -2.43187E+02
v -3.71744E+02  9.96071E+01 -2.43187E+02
g vc_ws_2134
s 0
f  857 858 859 860
f  857 858 862 861
f  859 858 862 863
f  860 859 863 864
f  860 857 861 864
f  861 862 863 864
v -9.71505E+01  7.57853E+01 -1.26334E+02
v -3.77417E+01  7.57853E+01 -1.26334E+02
v -3.77417E+01  7.57853E+01 -1.69673E+02
v -9.71505E+01  7.57853E+01 -1.69673E+02
v -9.71505E+01  4.82291E+01 -1.26334E+02
v -3.77417E+01  4.82291E+01 -1.26334E+02
v -3.77417E+01  4.82291E+01 -1.69673E+02
v -9.71505E+01  4.82291E+01 -1.69673E+02
g vc_ws_2155
s 0
f  865 866 867 868
f  865 866 870 869
f  867 866 870 871
f  868 867 871 872
f  868 865 869 872
f  869 870 871 872
v -7.24991E+02  1.92126E+02 -1.13003E+02
v -6.98834E+02  1.92126E+02 -1.13003E+02
v -6.98834E+02  1.92126E+02 -1.78278E+02
v -7.24991E+02  1.92126E+02 -1.78278E+02
v -7.24991E+02  1.08166E+02 -1.13003E+02
v -6.98834E+02  1.08166E+02 -1.13003E+02
v -6.98834E+02  1.08166E+02 -1.78278E+02
v -7.24991E+02  1.08166E+02 -1.78278E+02
g vc_ws_2190
s 0
f  873 874 875 876
f  873 874 878 877
f  875 874 878 879
f  876 875 879 880
f  876 873 877 880
f  877 878 879 880
v  1.34777E+02  1.46233E+02  1.56649E+02
v  1.79081E+02  1.46233E+02  1.56649E+02
v  1.79081E+02  1.46233E+02  1.15149E+02
v  1.34777E+02  1.46233E+02  1.15149E+02
v  1.34777E+02  1.17525E+02  1.56649E+02
v  1.79081E+02  1.17525E+02  1.56649E+02
v  1.79081E+02  1.17525E+02  1.15149E+02
v  1.34777E+02  1.17525E+02  1.15149E+02
g vc_ws_2194
s 0
f  881 882 883 884
f  881 882 886 885
f  883 882 886 887
f  884 883 887 888
f  884 881 885 888
f  885 886 887 888
v  4.72935E+02  6.92615E+01 -1.61439E+02
v  5.12800E+02  6.92615E+01 -1.61439E+02
v  5.12800E+02  6.92615E+01 -2.25322E+02
v  4.72935E+02  6.92615E+01 -2.25322E+02
v  4.72935E+02  4.34514E+01 -1.61439E+02
v  5.12800E+02  4.34514E+01 -1.61439E+02
v  5.12800E+02  4.34514E+01 -2.25322E+02
v  4.72935E+02  4.34514E+01 -2.25322E+02
g vc_ws_2197
s 0
f  889 890 891 892
f  889 890 894 893
f  891 890 894 895
f  892 891 895 896
f  892 889 893 896
f  893 894 895 896
v  3.99604E+02  1.34883E+02  1.17207E+02
v  4.35104E+02  1.34883E+02  1.17207E+02
v  4.35104E+02  1.34883E+02  7.97006E+01
v  3.99604E+02  1.34883E+02  7.97006E+01
v  3.99604E+02  8.07119E+01  1.17207E+02
v  4.35104E+02  8.07119E+01  1.17207E+02
v  4.35104E+02  8.07119E+01  7.97006E+01
v  3.99604E+02  8.07119E+01  7.97006E+01
g vc_ws_2199
s 0
f  897 898 899 900
f  897 898 902 901
f  899 898 902 903
f  900 899 903 904
f  900 897 901 904
f  901 902 903 904
v -2.29103E+02  2.19389E+02  1.13251E+02
v -2.02064E+02  2.19389E+02  1.13251E+02
v -2.02064E+02  2.19389E+02  8.27511E+01
v -2.29103E+02  2.19389E+02  8.27511E+01
v -2.29103E+02  1.40091E+02  1.13251E+02
v -2.02064E+02  1.40091E+02  1.13251E+02
v -2.02064E+02  1.40091E+02  8.27511E+01
v -2.29103E+02  1.40091E+02  8.27511E+01
g vc_ws_2203
s 0
f  905 906 907 908
f  905 906 910 909
f  907 906 910 911
f  908 907 911 912
f  908 905 909 912
f  909 910 911 912
v -3.14736E+02  1.29976E+02 -1.46416E+02
v -2.58290E+02  1.29976E+02 -1.46416E+02
v -2.58290E+02  1.29976E+02 -1.68916E+02
v -3.14736E+02  1.29976E+02 -1.68916E+02
v -3.14736E+02  7.73839E+01 -1.46416E+02
v -2.58290E+02  7.73839E+01 -1.46416E+02
v -2.58290E+02  7.73839E+01 -1.68916E+02
v -3.14736E+02  7.73839E+01 -1.68916E+02
g vc_ws_2229
s 0
f  913 914 915 916
f  913 914 918 917
f  915 914 918 919
f  916 915 919 920
f  916 913 917 920
f  917 918 919 920
v  2.22260E+01  2.54449E+01 -1.03216E+03
v  7.80876E+01  2.54449E+01 -1.03216E+03
v  7.80876E+01  2.54449E+01 -1.12577E+03
v  2.22260E+01  2.54449E+01 -1.12577E+03
v  2.22260E+01  1.74596E+01 -1.03216E+03
v  7.80876E+01  1.74596E+01 -1.03216E+03
v  7.80876E+01  1.74596E+01 -1.12577E+03
v  2.22260E+01  1.74596E+01 -1.12577E+03
g vc_ws_2299
s 0
f  921 922 923 924
f  921 922 926 925
f  923 922 926 927
f  924 923 927 928
f  924 921 925 928
f  925 926 927 928
v -4.34117E+02  1.28053E+02 -5.10719E+02
v -4.07617E+02  1.28053E+02 -5.10719E+02
v -4.07617E+02  1.28053E+02 -5.66185E+02
v -4.34117E+02  1.28053E+02 -5.66185E+02
v -4.34117E+02  1.15913E+02 -5.10719E+02
v -4.07617E+02  1.15913E+02 -5.10719E+02
v -4.07617E+02  1.15913E+02 -5.66185E+02
v -4.34117E+02  1.15913E+02 -5.66185E+02
g vc_ws_2306
s 0
f  929 930 931 932
f  929 930 934 933
f  931 930 934 935
f  932 931 935 936
f  932 929 933 936
f  933 934 935 936
v  5.05757E+02  1.19478E+02  2.41682E+01
v  5.39236E+02  1.19478E+02  2.41682E+01
v  5.39236E+02  1.19478E+02 -9.88779E+00
v  5.05757E+02  1.19478E+02 -9.88779E+00
v  5.05757E+02  6.36238E+01  2.41682E+01
v  5.39236E+02  6.36238E+01  2.41682E+01
v  5.39236E+02  6.36238E+01 -9.88779E+00
v  5.05757E+02  6.36238E+01 -9.88779E+00
g vc_ws_2341
s 0
f  937 938 939 940
f  937 938 942 941
f  939 938 942 943
f  940 939 943 944
f  940 937 941 944
f  941 942 943 944
v -3.31981E+01  5.46634E+01 -3.56185E+02
v  9.30188E+00  5.46634E+01 -3.56185E+02
v  9.30188E+00  5.46634E+01 -4.11369E+02
v -3.31981E+01  5.46634E+01 -4.11369E+02
v -3.31981E+01  3.68122E+01 -3.56185E+02
v  9.30188E+00  3.68122E+01 -3.56185E+02
v  9.30188E+00  3.68122E+01 -4.11369E+02
v -3.31981E+01  3.68122E+01 -4.11369E+02
g vc_ws_2351
s 0
f  945 946 947 948
f  945 946 950 949
f  947 946 950 951
f  948 947 951 952
f  948 945 949 952
f  949 950 951 952
v  4.90829E+02  1.11025E+02 -9.88779E+00
v  5.26063E+02  1.11025E+02 -9.88779E+00
v  5.26063E+02  1.11025E+02 -4.30057E+01
v  4.90829E+02  1.11025E+02 -4.30057E+01
v  4.90829E+02  6.36661E+01 -9.88779E+00
v  5.26063E+02  6.36661E+01 -9.88779E+00
v  5.26063E+02  6.36661E+01 -4.30057E+01
v  4.90829E+02  6.36661E+01 -4.30057E+01
g vc_ws_2353
s 0
f  953 954 955 956
f  953 954 958 957
f  955 954 958 959
f  956 955 959 960
f  956 953 957 960
f  957 958 959 960
v  8.23565E+01  6.17814E+01 -2.92254E+02
v  1.13299E+02  6.17814E+01 -2.92254E+02
v  1.13299E+02  6.17814E+01 -3.56185E+02
v  8.23565E+01  6.17814E+01 -3.56185E+02
v  8.23565E+01  4.10047E+01 -2.92254E+02
v  1.13299E+02  4.10047E+01 -2.92254E+02
v  1.13299E+02  4.10047E+01 -3.56185E+02
v  8.23565E+01  4.10047E+01 -3.56185E+02
g vc_ws_2369
s 0
f  961 962 963 964
f  961 962 966 965
f  963 962 966 967
f  964 963 967 968
f  964 961 965 968
f  965 966 967 968
v  1.79081E+02  1.48686E+02  1.96675E+02
v  2.10013E+02  1.48686E+02  1.96675E+02
v  2.10013E+02  1.48686E+02  1.58681E+02
v  1.79081E+02  1.48686E+02  1.58681E+02
v  1.79081E+02  1.11339E+02  1.96675E+02
v  2.10013E+02  1.11339E+02  1.96675E+02
v  2.10013E+02  1.11339E+02  1.58681E+02
v  1.79081E+02  1.11339E+02  1.58681E+02
g vc_ws_2380
s 0
f  969 970 971 972
f  969 970 974 973
f  971 970 974 975
f  972 971 975 976
f  972 969 973 976
f  973 974 975 976
v  4.28750E+02  1.02268E+02 -9.88779E+00
v  4.60250E+02  1.02268E+02 -9.88779E+00
v  4.60250E+02  1.02268E+02 -4.76756E+01
v  4.28750E+02  1.02268E+02 -4.76756E+01
v  4.28750E+02  5.92919E+01 -9.88779E+00
v  4.60250E+02  5.92919E+01 -9.88779E+00
v  4.60250E+02  5.92919E+01 -4.76756E+01
v  4.28750E+02  5.92919E+01 -4.76756E+01
g vc_ws_2381
s 0
f  977 978 979 980
f  977 978 982 981
f  979 978 982 983
f  980 979 983 984
f  980 977 981 984
f  981 982 983 984
v  7.80876E+01  2.44486E+01 -1.03343E+03
v  1.25810E+02  2.44486E+01 -1.03343E+03
v  1.25810E+02  2.44486E+01 -1.12546E+03
v  7.80876E+01  2.44486E+01 -1.12546E+03
v  7.80876E+01  1.52250E+01 -1.03343E+03
v  1.25810E+02  1.52250E+01 -1.03343E+03
v  1.25810E+02  1.52250E+01 -1.12546E+03
v  7.80876E+01  1.52250E+01 -1.12546E+03
g vc_ws_2389
s 0
f  985 986 987 988
f  985 986 990 989
f  987 986 990 991
f  988 987 991 992
f  988 985 989 992
f  989 990 991 992
v -7.85665E+02  1.63823E+02 -4.52438E+02
v -7.55361E+02  1.63823E+02 -4.52438E+02
v -7.55361E+02  1.63823E+02 -4.88766E+02
v -7.85665E+02  1.63823E+02 -4.88766E+02
v -7.85665E+02  1.06403E+02 -4.52438E+02
v -7.55361E+02  1.06403E+02 -4.52438E+02
v -7.55361E+02  1.06403E+02 -4.88766E+02
v -7.85665E+02  1.06403E+02 -4.88766E+02
g vc_ws_2394
s 0
f  993 994 995 996
f  993 994 998 997
f  995 994 998 999
f  996 995 999 1000
f  996 993 997 1000
f  997 998 999 1000
v  1.71176E+02  1.83339E+01 -1.03343E+03
v  2.57603E+02  1.83339E+01 -1.03343E+03
v  2.57603E+02  1.83339E+01 -1.09661E+03
v  1.71176E+02  1.83339E+01 -1.09661E+03
v  1.71176E+02  5.81301E+00 -1.03343E+03
v  2.57603E+02  5.81301E+00 -1.03343E+03
v  2.57603E+02  5.81301E+00 -1.09661E+03
v  1.71176E+02  5.81301E+00 -1.09661E+03
g vc_ws_2405
s 0
f  1001 1002 1003 1004
f  1001 1002 1006 1005
f  1003 1002 1006 1007
f  1004 1003 1007 1008
f  1004 1001 1005 1008
f  1005 1006 1007 1008
v -8.31165E+02  1.79164E+02 -4.07938E+02
v -7.82790E+02  1.79164E+02 -4.07938E+02
v -7.82790E+02  1.79164E+02 -4.29938E+02
v -8.31165E+02  1.79164E+02 -4.29938E+02
v -8.31165E+02  1.10134E+02 -4.07938E+02
v -7.82790E+02  1.10134E+02 -4.07938E+02
v -7.82790E+02  1.10134E+02 -4.29938E+02
v -8.31165E+02  1.10134E+02 -4.29938E+02
g vc_ws_2416
s 0
f  1009 1010 1011 1012
f  1009 1010 1014 1013
f  1011 1010 1014 1015
f  1012 1011 1015 1016
f  1012 1009 1013 1016
f  1013 1014 1015 1016
v  2.65423E+02  1.52044E+02  3.29775E+02
v  2.94236E+02  1.52044E+02  3.29775E+02
v  2.94236E+02  1.52044E+02  2.97331E+02
v  2.65423E+02  1.52044E+02  2.97331E+02
v  2.65423E+02  1.00356E+02  3.29775E+02
v  2.94236E+02  1.00356E+02  3.29775E+02
v  2.94236E+02  1.00356E+02  2.97331E+02
v  2.65423E+02  1.00356E+02  2.97331E+02
g vc_ws_2424
s 0
f  1017 1018 1019 1020
f  1017 1018 1022 1021
f  1019 1018 1022 1023
f  1020 1019 1023 1024
f  1020 1017 1021 1024
f  1021 1022 1023 1024
v  2.94236E+02  1.52044E+02  3.29775E+02
v  3.22936E+02  1.52044E+02  3.29775E+02
v  3.22936E+02  1.52044E+02  2.97331E+02
v  2.94236E+02  1.52044E+02  2.97331E+02
v  2.94236E+02  1.00356E+02  3.29775E+02
v  3.22936E+02  1.00356E+02  3.29775E+02
v  3.22936E+02  1.00356E+02  2.97331E+02
v  2.94236E+02  1.00356E+02  2.97331E+02
g vc_ws_2426
s 0
f  1025 1026 1027 1028
f  1025 1026 1030 1029
f  1027 1026 1030 1031
f  1028 1027 1031 1032
f  1028 1025 1029 1032
f  1029 1030 1031 1032
v  2.89762E+01  6.16972E+01 -2.92254E+02
v  8.23565E+01  6.16972E+01 -2.92254E+02
v  8.23565E+01  6.16972E+01 -3.23685E+02
v  2.89762E+01  6.16972E+01 -3.23685E+02
v  2.89762E+01  4.42256E+01 -2.92254E+02
v  8.23565E+01  4.42256E+01 -2.92254E+02
v  8.23565E+01  4.42256E+01 -3.23685E+02
v  2.89762E+01  4.42256E+01 -3.23685E+02
g vc_ws_2429
s 0
f  1033 1034 1035 1036
f  1033 1034 1038 1037
f  1035 1034 1038 1039
f  1036 1035 1039 1040
f  1036 1033 1037 1040
f  1037 1038 1039 1040
v  8.93513E+01  4.74568E+01 -4.49054E+02
v  1.32519E+02  4.74568E+01 -4.49054E+02
v  1.32519E+02  4.74568E+01 -4.96555E+02
v  8.93513E+01  4.74568E+01 -4.96555E+02
v  8.93513E+01  2.75293E+01 -4.49054E+02
v  1.32519E+02  2.75293E+01 -4.49054E+02
v  1.32519E+02  2.75293E+01 -4.96555E+02
v  8.93513E+01  2.75293E+01 -4.96555E+02
g vc_ws_2441
s 0
f  1041 1042 1043 1044
f  1041 1042 1046 1045
f  1043 1042 1046 1047
f  1044 1043 1047 1048
f  1044 1041 1045 1048
f  1045 1046 1047 1048
v  9.23734E+01  5.06589E+01 -4.02410E+02
v  1.32519E+02  5.06589E+01 -4.02410E+02
v  1.32519E+02  5.06589E+01 -4.49054E+02
v  9.23734E+01  5.06589E+01 -4.49054E+02
v  9.23734E+01  3.42648E+01 -4.02410E+02
v  1.32519E+02  3.42648E+01 -4.02410E+02
v  1.32519E+02  3.42648E+01 -4.49054E+02
v  9.23734E+01  3.42648E+01 -4.49054E+02
g vc_ws_2453
s 0
f  1049 1050 1051 1052
f  1049 1050 1054 1053
f  1051 1050 1054 1055
f  1052 1051 1055 1056
f  1052 1049 1053 1056
f  1053 1054 1055 1056
v -2.58290E+02  9.85681E+01 -1.35416E+02
v -2.28790E+02  9.85681E+01 -1.35416E+02
v -2.28790E+02  9.85681E+01 -1.68916E+02
v -2.58290E+02  9.85681E+01 -1.68916E+02
v -2.58290E+02  7.39886E+01 -1.35416E+02
v -2.28790E+02  7.39886E+01 -1.35416E+02
v -2.28790E+02  7.39886E+01 -1.68916E+02
v -2.58290E+02  7.39886E+01 -1.68916E+02
g vc_ws_2459
s 0
f  1057 1058 1059 1060
f  1057 1058 1062 1061
f  1059 1058 1062 1063
f  1060 1059 1063 1064
f  1060 1057 1061 1064
f  1061 1062 1063 1064
v  5.24426E+02  4.74085E+01 -2.89431E+02
v  5.72557E+02  4.74085E+01 -2.89431E+02
v  5.72557E+02  4.74085E+01 -3.29783E+02
v  5.24426E+02  4.74085E+01 -3.29783E+02
v  5.24426E+02  3.77761E+01 -2.89431E+02
v  5.72557E+02  3.77761E+01 -2.89431E+02
v  5.72557E+02  3.77761E+01 -3.29783E+02
v  5.24426E+02  3.77761E+01 -3.29783E+02
g vc_ws_2465
s 0
f  1065 1066 1067 1068
f  1065 1066 1070 1069
f  1067 1066 1070 1071
f  1068 1067 1071 1072
f  1068 1065 1069 1072
f  1069 1070 1071 1072
v  5.26063E+02  8.18243E+01 -4.35045E+01
v  5.50662E+02  8.18243E+01 -4.35045E+01
v  5.50662E+02  8.18243E+01 -8.75057E+01
v  5.26063E+02  8.18243E+01 -8.75057E+01
v  5.26063E+02  5.28026E+01 -4.35045E+01
v  5.50662E+02  5.28026E+01 -4.35045E+01
v  5.50662E+02  5.28026E+01 -8.75057E+01
v  5.26063E+02  5.28026E+01 -8.75057E+01
g vc_ws_2493
s 0
f  1073 1074 1075 1076
f  1073 1074 1078 1077
f  1075 1074 1078 1079
f  1076 1075 1079 1080
f  1076 1073 1077 1080
f  1077 1078 1079 1080
v  7.80876E+01  2.16788E+01 -1.18273E+03
v  1.71176E+02  2.16788E+01 -1.18273E+03
v  1.71176E+02  2.16788E+01 -1.22119E+03
v  7.80876E+01  2.16788E+01 -1.22119E+03
v  7.80876E+01  1.02011E+01 -1.18273E+03
v  1.71176E+02  1.02011E+01 -1.18273E+03
v  1.71176E+02  1.02011E+01 -1.22119E+03
v  7.80876E+01  1.02011E+01 -1.22119E+03
g vc_ws_2497
s 0
f  1081 1082 1083 1084
f  1081 1082 1086 1085
f  1083 1082 1086 1087
f  1084 1083 1087 1088
f  1084 1081 1085 1088
f  1085 1086 1087 1088
v  8.93513E+01  3.75819E+01 -4.96555E+02
v  1.32519E+02  3.75819E+01 -4.96555E+02
v  1.32519E+02  3.75819E+01 -5.46639E+02
v  8.93513E+01  3.75819E+01 -5.46639E+02
v  8.93513E+01  2.47046E+01 -4.96555E+02
v  1.32519E+02  2.47046E+01 -4.96555E+02
v  1.32519E+02  2.47046E+01 -5.46639E+02
v  8.93513E+01  2.47046E+01 -5.46639E+02
g vc_ws_2505
s 0
f  1089 1090 1091 1092
f  1089 1090 1094 1093
f  1091 1090 1094 1095
f  1092 1091 1095 1096
f  1092 1089 1093 1096
f  1093 1094 1095 1096
v  5.30648E+02  4.08994E+01 -5.86316E+02
v  5.63798E+02  4.08994E+01 -5.86316E+02
v  5.63798E+02  4.08994E+01 -6.46185E+02
v  5.30648E+02  4.08994E+01 -6.46185E+02
v  5.30648E+02  3.34311E+01 -5.86316E+02
v  5.63798E+02  3.34311E+01 -5.86316E+02
v  5.63798E+02  3.34311E+01 -6.46185E+02
v  5.30648E+02  3.34311E+01 -6.46185E+02
g vc_ws_2507
s 0
f  1097 1098 1099 1100
f  1097 1098 1102 1101
f  1099 1098 1102 1103
f  1100 1099 1103 1104
f  1100 1097 1101 1104
f  1101 1102 1103 1104
v -2.28790E+02  9.51864E+01 -1.35416E+02
v -2.02064E+02  9.51864E+01 -1.35416E+02
v -2.02064E+02  9.51864E+01 -1.68916E+02
v -2.28790E+02  9.51864E+01 -1.68916E+02
v -2.28790E+02  7.40055E+01 -1.35416E+02
v -2.02064E+02  7.40055E+01 -1.35416E+02
v -2.02064E+02  7.40055E+01 -1.68916E+02
v -2.28790E+02  7.40055E+01 -1.68916E+02
g vc_ws_2509
s 0
f  1105 1106 1107 1108
f  1105 1106 1110 1109
f  1107 1106 1110 1111
f  1108 1107 1111 1112
f  1108 1105 1109 1112
f  1109 1110 1111 1112
v  5.20981E+02  7.67197E+01 -8.75057E+01
v  5.50662E+02  7.67197E+01 -8.75057E+01
v  5.50662E+02  7.67197E+01 -1.23884E+02
v  5.20981E+02  7.67197E+01 -1.23884E+02
v  5.20981E+02  5.28281E+01 -8.75057E+01
v  5.50662E+02  5.28281E+01 -8.75057E+01
v  5.50662E+02  5.28281E+01 -1.23884E+02
v  5.20981E+02  5.28281E+01 -1.23884E+02
g vc_ws_2515
s 0
f  1113 1114 1115 1116
f  1113 1114 1118 1117
f  1115 1114 1118 1119
f  1116 1115 1119 1120
f  1116 1113 1117 1120
f  1117 1118 1119 1120
v  4.78131E+01  3.08796E+01 -6.94506E+02
v  9.64516E+01  3.08796E+01 -6.94506E+02
v  9.64516E+01  3.08796E+01 -7.45006E+02
v  4.78131E+01  3.08796E+01 -7.45006E+02
v  4.78131E+01  2.14313E+01 -6.94506E+02
v  9.64516E+01  2.14313E+01 -6.94506E+02
v  9.64516E+01  2.14313E+01 -7.45006E+02
v  4.78131E+01  2.14313E+01 -7.45006E+02
g vc_ws_2519
s 0
f  1121 1122 1123 1124
f  1121 1122 1126 1125
f  1123 1122 1126 1127
f  1124 1123 1127 1128
f  1124 1121 1125 1128
f  1125 1126 1127 1128
v  4.70690E+01  3.08796E+01 -7.45006E+02
v  9.52778E+01  3.08796E+01 -7.45006E+02
v  9.52778E+01  3.08796E+01 -7.94999E+02
v  4.70690E+01  3.08796E+01 -7.94999E+02
v  4.70690E+01  2.27428E+01 -7.45006E+02
v  9.52778E+01  2.27428E+01 -7.45006E+02
v  9.52778E+01  2.27428E+01 -7.94999E+02
v  4.70690E+01  2.27428E+01 -7.94999E+02
g vc_ws_2523
s 0
f  1129 1130 1131 1132
f  1129 1130 1134 1133
f  1131 1130 1134 1135
f  1132 1131 1135 1136
f  1132 1129 1133 1136
f  1133 1134 1135 1136
v  4.79510E+02  4.08994E+01 -5.26895E+02
v  5.06010E+02  4.08994E+01 -5.26895E+02
v  5.06010E+02  4.08994E+01 -5.85063E+02
v  4.79510E+02  4.08994E+01 -5.85063E+02
v  4.79510E+02  3.48458E+01 -5.26895E+02
v  5.06010E+02  3.48458E+01 -5.26895E+02
v  5.06010E+02  3.48458E+01 -5.85063E+02
v  4.79510E+02  3.48458E+01 -5.85063E+02
g vc_ws_2533
s 0
f  1137 1138 1139 1140
f  1137 1138 1142 1141
f  1139 1138 1142 1143
f  1140 1139 1143 1144
f  1140 1137 1141 1144
f  1141 1142 1143 1144
v -8.03819E+02  1.74992E+02 -3.67745E+02
v -7.82790E+02  1.74992E+02 -3.67745E+02
v -7.82790E+02  1.74992E+02 -4.07938E+02
v -8.03819E+02  1.74992E+02 -4.07938E+02
v -8.03819E+02  1.41071E+02 -3.67745E+02
v -7.82790E+02  1.41071E+02 -3.67745E+02
v -7.82790E+02  1.41071E+02 -4.07938E+02
v -8.03819E+02  1.41071E+02 -4.07938E+02
g vc_ws_2536
s 0
f  1145 1146 1147 1148
f  1145 1146 1150 1149
f  1147 1146 1150 1151
f  1148 1147 1151 1152
f  1148 1145 1149 1152
f  1149 1150 1151 1152
v  5.24426E+02  4.59906E+01 -3.29783E+02
v  5.72557E+02  4.59906E+01 -3.29783E+02
v  5.72557E+02  4.59906E+01 -3.56185E+02
v  5.24426E+02  4.59906E+01 -3.56185E+02
v  5.24426E+02  3.77832E+01 -3.29783E+02
v  5.72557E+02  3.77832E+01 -3.29783E+02
v  5.72557E+02  3.77832E+01 -3.56185E+02
v  5.24426E+02  3.77832E+01 -3.56185E+02
g vc_ws_2537
s 0
f  1153 1154 1155 1156
f  1153 1154 1158 1157
f  1155 1154 1158 1159
f  1156 1155 1159 1160
f  1156 1153 1157 1160
f  1157 1158 1159 1160
v  5.99029E+02  3.96258E+01 -7.43362E+02
v  6.28370E+02  3.96258E+01 -7.43362E+02
v  6.28370E+02  3.96258E+01 -7.92400E+02
v  5.99029E+02  3.96258E+01 -7.92400E+02
v  5.99029E+02  2.07440E+01 -7.43362E+02
v  6.28370E+02  2.07440E+01 -7.43362E+02
v  6.28370E+02  2.07440E+01 -7.92400E+02
v  5.99029E+02  2.07440E+01 -7.92400E+02
g vc_ws_2539
s 0
f  1161 1162 1163 1164
f  1161 1162 1166 1165
f  1163 1162 1166 1167
f  1164 1163 1167 1168
f  1164 1161 1165 1168
f  1165 1166 1167 1168
v  4.58325E+02  6.92615E+01 -1.61439E+02
v  4.72935E+02  6.92615E+01 -1.61439E+02
v  4.72935E+02  6.92615E+01 -2.06918E+02
v  4.58325E+02  6.92615E+01 -2.06918E+02
v  4.58325E+02  4.71295E+01 -1.61439E+02
v  4.72935E+02  4.71295E+01 -1.61439E+02
v  4.72935E+02  4.71295E+01 -2.06918E+02
v  4.58325E+02  4.71295E+01 -2.06918E+02
g vc_ws_2541
s 0
f  1169 1170 1171 1172
f  1169 1170 1174 1173
f  1171 1170 1174 1175
f  1172 1171 1175 1176
f  1172 1169 1173 1176
f  1173 1174 1175 1176
v  5.99397E+02  2.59742E+01 -8.91039E+02
v  6.28370E+02  2.59742E+01 -8.91039E+02
v  6.28370E+02  2.59742E+01 -9.41742E+02
v  5.99397E+02  2.59742E+01 -9.41742E+02
v  5.99397E+02  5.07066E+00 -8.91039E+02
v  6.28370E+02  5.07066E+00 -8.91039E+02
v  6.28370E+02  5.07066E+00 -9.41742E+02
v  5.99397E+02  5.07066E+00 -9.41742E+02
g vc_ws_2543
s 0
f  1177 1178 1179 1180
f  1177 1178 1182 1181
f  1179 1178 1182 1183
f  1180 1179 1183 1184
f  1180 1177 1181 1184
f  1181 1182 1183 1184
v  5.28527E+02  4.59906E+01 -3.56185E+02
v  5.62448E+02  4.59906E+01 -3.56185E+02
v  5.62448E+02  4.59906E+01 -3.80345E+02
v  5.28527E+02  4.59906E+01 -3.80345E+02
v  5.28527E+02  3.57116E+01 -3.56185E+02
v  5.62448E+02  3.57116E+01 -3.56185E+02
v  5.62448E+02  3.57116E+01 -3.80345E+02
v  5.28527E+02  3.57116E+01 -3.80345E+02
g vc_ws_2545
s 0
f  1185 1186 1187 1188
f  1185 1186 1190 1189
f  1187 1186 1190 1191
f  1188 1187 1191 1192
f  1188 1185 1189 1192
f  1189 1190 1191 1192
v  5.09103E+02  4.33962E+01 -4.65218E+02
v  5.34727E+02  4.33962E+01 -4.65218E+02
v  5.34727E+02  4.33962E+01 -4.95395E+02
v  5.09103E+02  4.33962E+01 -4.95395E+02
v  5.09103E+02  3.48189E+01 -4.65218E+02
v  5.34727E+02  3.48189E+01 -4.65218E+02
v  5.34727E+02  3.48189E+01 -4.95395E+02
v  5.09103E+02  3.48189E+01 -4.95395E+02
g vc_ws_2549
s 0
f  1193 1194 1195 1196
f  1193 1194 1198 1197
f  1195 1194 1198 1199
f  1196 1195 1199 1200
f  1196 1193 1197 1200
f  1197 1198 1199 1200
v  5.99124E+02  1.82352E+01 -9.41742E+02
v  6.28370E+02  1.82352E+01 -9.41742E+02
v  6.28370E+02  1.82352E+01 -9.91845E+02
v  5.99124E+02  1.82352E+01 -9.91845E+02
v  5.99124E+02  1.82065E+00 -9.41742E+02
v  6.28370E+02  1.82065E+00 -9.41742E+02
v  6.28370E+02  1.82065E+00 -9.91845E+02
v  5.99124E+02  1.82065E+00 -9.91845E+02
g vc_ws_2551
s 0
f  1201 1202 1203 1204
f  1201 1202 1206 1205
f  1203 1202 1206 1207
f  1204 1203 1207 1208
f  1204 1201 1205 1208
f  1205 1206 1207 1208
v  4.58415E+02  5.10435E+01 -3.27733E+02
v  4.73926E+02  5.10435E+01 -3.27733E+02
v  4.73926E+02  5.10435E+01 -3.56185E+02
v  4.58415E+02  5.10435E+01 -3.56185E+02
v  4.58415E+02  3.71356E+01 -3.27733E+02
v  4.73926E+02  3.71356E+01 -3.27733E+02
v  4.73926E+02  3.71356E+01 -3.56185E+02
v  4.58415E+02  3.71356E+01 -3.56185E+02
g vc_ws_2553
s 0
f  1209 1210 1211 1212
f  1209 1210 1214 1213
f  1211 1210 1214 1215
f  1212 1211 1215 1216
f  1212 1209 1213 1216
f  1213 1214 1215 1216
v  5.08124E+02  1.00063E+01 -9.91845E+02
v  5.39624E+02  1.00063E+01 -9.91845E+02
v  5.39624E+02  1.00063E+01 -1.04214E+03
v  5.08124E+02  1.00063E+01 -1.04214E+03
v  5.08124E+02  6.87772E-01 -9.91845E+02
v  5.39624E+02  6.87772E-01 -9.91845E+02
v  5.39624E+02  6.87772E-01 -1.04214E+03
v  5.08124E+02  6.87772E-01 -1.04214E+03
g vc_ws_2555
s 0
f  1217 1218 1219 1220
f  1217 1218 1222 1221
f  1219 1218 1222 1223
f  1220 1219 1223 1224
f  1220 1217 1221 1224
f  1221 1222 1223 1224
v  5.36117E+02  8.21180E+00 -1.09425E+03
v  5.78518E+02  8.21180E+00 -1.09425E+03
v  5.78518E+02  8.21180E+00 -1.12646E+03
v  5.36117E+02  8.21180E+00 -1.12646E+03
v  5.36117E+02  3.40387E-01 -1.09425E+03
v  5.78518E+02  3.40387E-01 -1.09425E+03
v  5.78518E+02  3.40387E-01 -1.12646E+03
v  5.36117E+02  3.40387E-01 -1.12646E+03
g vc_ws_2557
s 0
f  1225 1226 1227 1228
f  1225 1226 1230 1229
f  1227 1226 1230 1231
f  1228 1227 1231 1232
f  1228 1225 1229 1232
f  1229 1230 1231 1232
v  5.66617E+02  1.54988E+01 -1.04214E+03
v  5.96928E+02  1.54988E+01 -1.04214E+03
v  5.96928E+02  1.54988E+01 -1.06775E+03
v  5.66617E+02  1.54988E+01 -1.06775E+03
v  5.66617E+02  6.60309E-01 -1.04214E+03
v  5.96928E+02  6.60309E-01 -1.04214E+03
v  5.96928E+02  6.60309E-01 -1.06775E+03
v  5.66617E+02  6.60309E-01 -1.06775E+03
g vc_ws_2559
s 0
f  1233 1234 1235 1236
f  1233 1234 1238 1237
f  1235 1234 1238 1239
f  1236 1235 1239 1240
f  1236 1233 1237 1240
f  1237 1238 1239 1240
v  3.82936E+02  1.00085E+01 -1.09239E+03
v  4.11162E+02  1.00085E+01 -1.09239E+03
v  4.11162E+02  1.00085E+01 -1.12759E+03
v  3.82936E+02  1.00085E+01 -1.12759E+03
v  3.82936E+02  2.35496E+00 -1.09239E+03
v  4.11162E+02  2.35496E+00 -1.09239E+03
v  4.11162E+02  2.35496E+00 -1.12759E+03
v  3.82936E+02  2.35496E+00 -1.12759E+03
g vc_ws_2561
s 0
f  1241 1242 1243 1244
f  1241 1242 1246 1245
f  1243 1242 1246 1247
f  1244 1243 1247 1248
f  1244 1241 1245 1248
f  1245 1246 1247 1248
v  3.82936E+02  1.03030E+01 -1.04214E+03
v  4.11162E+02  1.03030E+01 -1.04214E+03
v  4.11162E+02  1.03030E+01 -1.06689E+03
v  3.82936E+02  1.03030E+01 -1.06689E+03
v  3.82936E+02  2.35349E+00 -1.04214E+03
v  4.11162E+02  2.35349E+00 -1.04214E+03
v  4.11162E+02  2.35349E+00 -1.06689E+03
v  3.82936E+02  2.35349E+00 -1.06689E+03
g vc_ws_2563
s 0
f  1249 1250 1251 1252
f  1249 1250 1254 1253
f  1251 1250 1254 1255
f  1252 1251 1255 1256
f  1252 1249 1253 1256
f  1253 1254 1255 1256
v -6.38336E+02  1.48419E+02  7.64077E+01
v -5.52064E+02  1.48419E+02  7.64077E+01
v -5.52064E+02  1.48419E+02  2.07462E+01
v -6.38336E+02  1.48419E+02  2.07462E+01
v -6.38336E+02  9.08736E+01  7.64077E+01
v -5.52064E+02  9.08736E+01  7.64077E+01
v -5.52064E+02  9.08736E+01  2.07462E+01
v -6.38336E+02  9.08736E+01  2.07462E+01
g vc_ws_2580
s 0
f  1257 1258 1259 1260
f  1257 1258 1262 1261
f  1259 1258 1262 1263
f  1260 1259 1263 1264
f  1260 1257 1261 1264
f  1261 1262 1263 1264
v  1.59902E+01  1.43813E+02 -4.26943E+01
v  6.77131E+01  1.43813E+02 -4.26943E+01
v  6.77131E+01  1.43813E+02 -1.05720E+02
v  1.59902E+01  1.43813E+02 -1.05720E+02
v  1.59902E+01  6.99798E+01 -4.26943E+01
v  6.77131E+01  6.99798E+01 -4.26943E+01
v  6.77131E+01  6.99798E+01 -1.05720E+02
v  1.59902E+01  6.99798E+01 -1.05720E+02
g vc_ws_2595
s 0
f  1265 1266 1267 1268
f  1265 1266 1270 1269
f  1267 1266 1270 1271
f  1268 1267 1271 1272
f  1268 1265 1269 1272
f  1269 1270 1271 1272
v -6.68450E+02  1.89120E+02  2.07462E+01
v -6.11669E+02  1.89120E+02  2.07462E+01
v -6.11669E+02  1.89120E+02 -4.79819E+01
v -6.68450E+02  1.89120E+02 -4.79819E+01
v -6.68450E+02  9.76789E+01  2.07462E+01
v -6.11669E+02  9.76789E+01  2.07462E+01
v -6.11669E+02  9.76789E+01 -4.79819E+01
v -6.68450E+02  9.76789E+01 -4.79819E+01
g vc_ws_2600
s 0
f  1273 1274 1275 1276
f  1273 1274 1278 1277
f  1275 1274 1278 1279
f  1276 1275 1279 1280
f  1276 1273 1277 1280
f  1277 1278 1279 1280
v  1.56562E+01  1.17408E+02 -1.05720E+02
v  6.77131E+01  1.17408E+02 -1.05720E+02
v  6.77131E+01  1.17408E+02 -1.69673E+02
v  1.56562E+01  1.17408E+02 -1.69673E+02
v  1.56562E+01  6.04526E+01 -1.05720E+02
v  6.77131E+01  6.04526E+01 -1.05720E+02
v  6.77131E+01  6.04526E+01 -1.69673E+02
v  1.56562E+01  6.04526E+01 -1.69673E+02
g vc_ws_2611
s 0
f  1281 1282 1283 1284
f  1281 1282 1286 1285
f  1283 1282 1286 1287
f  1284 1283 1287 1288
f  1284 1281 1285 1288
f  1285 1286 1287 1288
v -8.90872E+01  1.70293E+02  8.33004E+01
v -3.71564E+01  1.70293E+02  8.33004E+01
v -3.71564E+01  1.70293E+02  1.98004E+01
v -8.90872E+01  1.70293E+02  1.98004E+01
v -8.90872E+01  1.21525E+02  8.33004E+01
v -3.71564E+01  1.21525E+02  8.33004E+01
v -3.71564E+01  1.21525E+02  1.98004E+01
v -8.90872E+01  1.21525E+02  1.98004E+01
g vc_ws_2646
s 0
f  1289 1290 1291 1292
f  1289 1290 1294 1293
f  1291 1290 1294 1295
f  1292 1291 1295 1296
f  1292 1289 1293 1296
f  1293 1294 1295 1296
v -3.13024E+02  1.14632E+02 -2.86572E+02
v -2.75930E+02  1.14632E+02 -2.86572E+02
v -2.75930E+02  1.14632E+02 -3.45355E+02
v -3.13024E+02  1.14632E+02 -3.45355E+02
v -3.13024E+02  9.76486E+01 -2.86572E+02
v -2.75930E+02  9.76486E+01 -2.86572E+02
v -2.75930E+02  9.76486E+01 -3.45355E+02
v -3.13024E+02  9.76486E+01 -3.45355E+02
g vc_ws_2689
s 0
f  1297 1298 1299 1300
f  1297 1298 1302 1301
f  1299 1298 1302 1303
f  1300 1299 1303 1304
f  1300 1297 1301 1304
f  1301 1302 1303 1304
v -6.64985E+02  1.89107E+02 -1.13003E+02
v -6.31710E+02  1.89107E+02 -1.13003E+02
v -6.31710E+02  1.89107E+02 -1.78278E+02
v -6.64985E+02  1.89107E+02 -1.78278E+02
v -6.64985E+02  1.00342E+02 -1.13003E+02
v -6.31710E+02  1.00342E+02 -1.13003E+02
v -6.31710E+02  1.00342E+02 -1.78278E+02
v -6.64985E+02  1.00342E+02 -1.78278E+02
g vc_ws_2692
s 0
f  1305 1306 1307 1308
f  1305 1306 1310 1309
f  1307 1306 1310 1311
f  1308 1307 1311 1312
f  1308 1305 1309 1312
f  1309 1310 1311 1312
v -3.54192E+02  1.22215E+02 -3.99970E+02
v -3.14985E+02  1.22215E+02 -3.99970E+02
v -3.14985E+02  1.22215E+02 -4.55470E+02
v -3.54192E+02  1.22215E+02 -4.55470E+02
v -3.54192E+02  1.03378E+02 -3.99970E+02
v -3.14985E+02  1.03378E+02 -3.99970E+02
v -3.14985E+02  1.03378E+02 -4.55470E+02
v -3.54192E+02  1.03378E+02 -4.55470E+02
g vc_ws_2698
s 0
f  1313 1314 1315 1316
f  1313 1314 1318 1317
f  1315 1314 1318 1319
f  1316 1315 1319 1320
f  1316 1313 1317 1320
f  1317 1318 1319 1320
v -4.34520E+02  1.54422E+02 -2.43187E+02
v -3.93020E+02  1.54422E+02 -2.43187E+02
v -3.93020E+02  1.54422E+02 -2.92927E+02
v -4.34520E+02  1.54422E+02 -2.92927E+02
v -4.34520E+02  1.00145E+02 -2.43187E+02
v -3.93020E+02  1.00145E+02 -2.43187E+02
v -3.93020E+02  1.00145E+02 -2.92927E+02
v -4.34520E+02  1.00145E+02 -2.92927E+02
g vc_ws_2712
s 0
f  1321 1322 1323 1324
f  1321 1322 1326 1325
f  1323 1322 1326 1327
f  1324 1323 1327 1328
f  1324 1321 1325 1328
f  1325 1326 1327 1328
v  3.22936E+02  1.51412E+02  2.64313E+02
v  3.51607E+02  1.51412E+02  2.64313E+02
v  3.51607E+02  1.51412E+02  1.98540E+02
v  3.22936E+02  1.51412E+02  1.98540E+02
v  3.22936E+02  9.17693E+01  2.64313E+02
v  3.51607E+02  9.17693E+01  2.64313E+02
v  3.51607E+02  9.17693E+01  1.98540E+02
v  3.22936E+02  9.17693E+01  1.98540E+02
g vc_ws_2722
s 0
f  1329 1330 1331 1332
f  1329 1330 1334 1333
f  1331 1330 1334 1335
f  1332 1331 1335 1336
f  1332 1329 1333 1336
f  1333 1334 1335 1336
v -6.01430E+02  1.20156E+02 -6.40210E+02
v -5.60993E+02  1.20156E+02 -6.40210E+02
v -5.60993E+02  1.20156E+02 -6.85710E+02
v -6.01430E+02  1.20156E+02 -6.85710E+02
v -6.01430E+02  8.70939E+01 -6.40210E+02
v -5.60993E+02  8.70939E+01 -6.40210E+02
v -5.60993E+02  8.70939E+01 -6.85710E+02
v -6.01430E+02  8.70939E+01 -6.85710E+02
g vc_ws_2747
s 0
f  1337 1338 1339 1340
f  1337 1338 1342 1341
f  1339 1338 1342 1343
f  1340 1339 1343 1344
f  1340 1337 1341 1344
f  1341 1342 1343 1344
v -8.90872E+01  1.82897E+02  1.88693E+02
v -3.71564E+01  1.82897E+02  1.88693E+02
v -3.71564E+01  1.82897E+02  1.45300E+02
v -8.90872E+01  1.82897E+02  1.45300E+02
v -8.90872E+01  1.28206E+02  1.88693E+02
v -3.71564E+01  1.28206E+02  1.88693E+02
v -3.71564E+01  1.28206E+02  1.45300E+02
v -8.90872E+01  1.28206E+02  1.45300E+02
g vc_ws_2778
s 0
f  1345 1346 1347 1348
f  1345 1346 1350 1349
f  1347 1346 1350 1351
f  1348 1347 1351 1352
f  1348 1345 1349 1352
f  1349 1350 1351 1352
v -9.71505E+01  1.40321E+02 -2.66040E+01
v -3.77417E+01  1.40321E+02 -2.66040E+01
v -3.77417E+01  1.40321E+02 -4.96195E+01
v -9.71505E+01  1.40321E+02 -4.96195E+01
v -9.71505E+01  6.92181E+01 -2.66040E+01
v -3.77417E+01  6.92181E+01 -2.66040E+01
v -3.77417E+01  6.92181E+01 -4.96195E+01
v -9.71505E+01  6.92181E+01 -4.96195E+01
g vc_ws_2799
s 0
f  1353 1354 1355 1356
f  1353 1354 1358 1357
f  1355 1354 1358 1359
f  1356 1355 1359 1360
f  1356 1353 1357 1360
f  1357 1358 1359 1360
v  4.12667E+02  1.40409E+02  2.64313E+02
v  4.34466E+02  1.40409E+02  2.64313E+02
v  4.34466E+02  1.40409E+02  1.98540E+02
v  4.12667E+02  1.40409E+02  1.98540E+02
v  4.12667E+02  8.71398E+01  2.64313E+02
v  4.34466E+02  8.71398E+01  2.64313E+02
v  4.34466E+02  8.71398E+01  1.98540E+02
v  4.12667E+02  8.71398E+01  1.98540E+02
g vc_ws_2810
s 0
f  1361 1362 1363 1364
f  1361 1362 1366 1365
f  1363 1362 1366 1367
f  1364 1363 1367 1368
f  1364 1361 1365 1368
f  1365 1366 1367 1368
v -2.02064E+02  1.46761E+02 -4.15022E+01
v -1.73564E+02  1.46761E+02 -4.15022E+01
v -1.73564E+02  1.46761E+02 -8.45228E+01
v -2.02064E+02  1.46761E+02 -8.45228E+01
v -2.02064E+02  6.88101E+01 -4.15022E+01
v -1.73564E+02  6.88101E+01 -4.15022E+01
v -1.73564E+02  6.88101E+01 -8.45228E+01
v -2.02064E+02  6.88101E+01 -8.45228E+01
g vc_ws_2818
s 0
f  1369 1370 1371 1372
f  1369 1370 1374 1373
f  1371 1370 1374 1375
f  1372 1371 1375 1376
f  1372 1369 1373 1376
f  1373 1374 1375 1376
v -9.71505E+01  1.09217E+02 -7.41195E+01
v -6.66505E+01  1.09217E+02 -7.41195E+01
v -6.66505E+01  1.09217E+02 -1.26334E+02
v -9.71505E+01  1.09217E+02 -1.26334E+02
v -9.71505E+01  5.26586E+01 -7.41195E+01
v -6.66505E+01  5.26586E+01 -7.41195E+01
v -6.66505E+01  5.26586E+01 -1.26334E+02
v -9.71505E+01  5.26586E+01 -1.26334E+02
g vc_ws_2829
s 0
f  1377 1378 1379 1380
f  1377 1378 1382 1381
f  1379 1378 1382 1383
f  1380 1379 1383 1384
f  1380 1377 1381 1384
f  1381 1382 1383 1384
v  6.24147E+01  1.47139E+02  1.43331E+02
v  9.86665E+01  1.47139E+02  1.43331E+02
v  9.86665E+01  1.47139E+02  9.58305E+01
v  6.24147E+01  1.47139E+02  9.58305E+01
v  6.24147E+01  1.16368E+02  1.43331E+02
v  9.86665E+01  1.16368E+02  1.43331E+02
v  9.86665E+01  1.16368E+02  9.58305E+01
v  6.24147E+01  1.16368E+02  9.58305E+01
g vc_ws_2832
s 0
f  1385 1386 1387 1388
f  1385 1386 1390 1389
f  1387 1386 1390 1391
f  1388 1387 1391 1392
f  1388 1385 1389 1392
f  1389 1390 1391 1392
v  9.86665E+01  1.46239E+02  1.43331E+02
v  1.34777E+02  1.46239E+02  1.43331E+02
v  1.34777E+02  1.46239E+02  9.58305E+01
v  9.86665E+01  1.46239E+02  9.58305E+01
v  9.86665E+01  1.16368E+02  1.43331E+02
v  1.34777E+02  1.16368E+02  1.43331E+02
v  1.34777E+02  1.16368E+02  9.58305E+01
v  9.86665E+01  1.16368E+02  9.58305E+01
g vc_ws_2834
s 0
f  1393 1394 1395 1396
f  1393 1394 1398 1397
f  1395 1394 1398 1399
f  1396 1395 1399 1400
f  1396 1393 1397 1400
f  1397 1398 1399 1400
v -7.31521E+02  1.75325E+02 -2.98710E+02
v -6.82408E+02  1.75325E+02 -2.98710E+02
v -6.82408E+02  1.75325E+02 -3.30210E+02
v -7.31521E+02  1.75325E+02 -3.30210E+02
v -7.31521E+02  1.06403E+02 -2.98710E+02
v -6.82408E+02  1.06403E+02 -2.98710E+02
v -6.82408E+02  1.06403E+02 -3.30210E+02
v -7.31521E+02  1.06403E+02 -3.30210E+02
g vc_ws_2842
s 0
f  1401 1402 1403 1404
f  1401 1402 1406 1405
f  1403 1402 1406 1407
f  1404 1403 1407 1408
f  1404 1401 1405 1408
f  1405 1406 1407 1408
v -4.07617E+02  1.17990E+02 -5.10719E+02
v -3.54617E+02  1.17990E+02 -5.10719E+02
v -3.54617E+02  1.17990E+02 -5.37685E+02
v -4.07617E+02  1.17990E+02 -5.37685E+02
v -4.07617E+02  5.61497E+01 -5.10719E+02
v -3.54617E+02  5.61497E+01 -5.10719E+02
v -3.54617E+02  5.61497E+01 -5.37685E+02
v -4.07617E+02  5.61497E+01 -5.37685E+02
g vc_ws_2843
s 0
f  1409 1410 1411 1412
f  1409 1410 1414 1413
f  1411 1410 1414 1415
f  1412 1411 1415 1416
f  1412 1409 1413 1416
f  1413 1414 1415 1416
v  1.67566E+02  1.55653E+02  2.92945E+02
v  2.00227E+02  1.55653E+02  2.92945E+02
v  2.00227E+02  1.55653E+02  2.46175E+02
v  1.67566E+02  1.55653E+02  2.46175E+02
v  1.67566E+02  1.09678E+02  2.92945E+02
v  2.00227E+02  1.09678E+02  2.92945E+02
v  2.00227E+02  1.09678E+02  2.46175E+02
v  1.67566E+02  1.09678E+02  2.46175E+02
g vc_ws_2854
s 0
f  1417 1418 1419 1420
f  1417 1418 1422 1421
f  1419 1418 1422 1423
f  1420 1419 1423 1424
f  1420 1417 1421 1424
f  1421 1422 1423 1424
v -2.02064E+02  1.24632E+02 -1.06523E+02
v -1.46825E+02  1.24632E+02 -1.06523E+02
v -1.46825E+02  1.24632E+02 -1.30023E+02
v -2.02064E+02  1.24632E+02 -1.30023E+02
v -2.02064E+02  6.76711E+01 -1.06523E+02
v -1.46825E+02  6.76711E+01 -1.06523E+02
v -1.46825E+02  6.76711E+01 -1.30023E+02
v -2.02064E+02  6.76711E+01 -1.30023E+02
g vc_ws_2855
s 0
f  1425 1426 1427 1428
f  1425 1426 1430 1429
f  1427 1426 1430 1431
f  1428 1427 1431 1432
f  1428 1425 1429 1432
f  1429 1430 1431 1432
v  3.68922E+02  1.09432E+02  1.98540E+02
v  3.99422E+02  1.09432E+02  1.98540E+02
v  3.99422E+02  1.09432E+02  1.55506E+02
v  3.68922E+02  1.09432E+02  1.55506E+02
v  3.68922E+02  8.76896E+01  1.98540E+02
v  3.99422E+02  8.76896E+01  1.98540E+02
v  3.99422E+02  8.76896E+01  1.55506E+02
v  3.68922E+02  8.76896E+01  1.55506E+02
g vc_ws_2887
s 0
f  1433 1434 1435 1436
f  1433 1434 1438 1437
f  1435 1434 1438 1439
f  1436 1435 1439 1440
f  1436 1433 1437 1440
f  1437 1438 1439 1440
v  3.72436E+02  1.48903E+02  3.03058E+02
v  4.02019E+02  1.48903E+02  3.03058E+02
v  4.02019E+02  1.48903E+02  2.64313E+02
v  3.72436E+02  1.48903E+02  2.64313E+02
v  3.72436E+02  9.17693E+01  3.03058E+02
v  4.02019E+02  9.17693E+01  3.03058E+02
v  4.02019E+02  9.17693E+01  2.64313E+02
v  3.72436E+02  9.17693E+01  2.64313E+02
g vc_ws_2894
s 0
f  1441 1442 1443 1444
f  1441 1442 1446 1445
f  1443 1442 1446 1447
f  1444 1443 1447 1448
f  1444 1441 1445 1448
f  1445 1446 1447 1448
v -7.16245E+02  1.32623E+02 -5.66185E+02
v -6.81052E+02  1.32623E+02 -5.66185E+02
v -6.81052E+02  1.32623E+02 -6.02734E+02
v -7.16245E+02  1.32623E+02 -6.02734E+02
v -7.16245E+02  1.06403E+02 -5.66185E+02
v -6.81052E+02  1.06403E+02 -5.66185E+02
v -6.81052E+02  1.06403E+02 -6.02734E+02
v -7.16245E+02  1.06403E+02 -6.02734E+02
g vc_ws_2898
s 0
f  1449 1450 1451 1452
f  1449 1450 1454 1453
f  1451 1450 1454 1455
f  1452 1451 1455 1456
f  1452 1449 1453 1456
f  1453 1454 1455 1456
v -3.54617E+02  1.28521E+02 -5.10719E+02
v -3.14117E+02  1.28521E+02 -5.10719E+02
v -3.14117E+02  1.28521E+02 -5.37685E+02
v -3.54617E+02  1.28521E+02 -5.37685E+02
v -3.54617E+02  4.79554E+01 -5.10719E+02
v -3.14117E+02  4.79554E+01 -5.10719E+02
v -3.14117E+02  4.79554E+01 -5.37685E+02
v -3.54617E+02  4.79554E+01 -5.37685E+02
g vc_ws_2901
s 0
f  1457 1458 1459 1460
f  1457 1458 1462 1461
f  1459 1458 1462 1463
f  1460 1459 1463 1464
f  1460 1457 1461 1464
f  1461 1462 1463 1464
v -7.20096E+02  1.40840E+02 -3.59800E+02
v -6.94694E+02  1.40840E+02 -3.59800E+02
v -6.94694E+02  1.40840E+02 -4.09722E+02
v -7.20096E+02  1.40840E+02 -4.09722E+02
v -7.20096E+02  1.06403E+02 -3.59800E+02
v -6.94694E+02  1.06403E+02 -3.59800E+02
v -6.94694E+02  1.06403E+02 -4.09722E+02
v -7.20096E+02  1.06403E+02 -4.09722E+02
g vc_ws_2906
s 0
f  1465 1466 1467 1468
f  1465 1466 1470 1469
f  1467 1466 1470 1471
f  1468 1467 1471 1472
f  1468 1465 1469 1472
f  1469 1470 1471 1472
v  3.99604E+02  1.34883E+02  7.97006E+01
v  4.36104E+02  1.34883E+02  7.97006E+01
v  4.36104E+02  1.34883E+02  5.22493E+01
v  3.99604E+02  1.34883E+02  5.22493E+01
v  3.99604E+02  7.58688E+01  7.97006E+01
v  4.36104E+02  7.58688E+01  7.97006E+01
v  4.36104E+02  7.58688E+01  5.22493E+01
v  3.99604E+02  7.58688E+01  5.22493E+01
g vc_ws_2929
s 0
f  1473 1474 1475 1476
f  1473 1474 1478 1477
f  1475 1474 1478 1479
f  1476 1475 1479 1480
f  1476 1473 1477 1480
f  1477 1478 1479 1480
v -3.54617E+02  1.20123E+02 -4.82219E+02
v -3.14117E+02  1.20123E+02 -4.82219E+02
v -3.14117E+02  1.20123E+02 -5.10719E+02
v -3.54617E+02  1.20123E+02 -5.10719E+02
v -3.54617E+02  1.07099E+02 -4.82219E+02
v -3.14117E+02  1.07099E+02 -4.82219E+02
v -3.14117E+02  1.07099E+02 -5.10719E+02
v -3.54617E+02  1.07099E+02 -5.10719E+02
g vc_ws_2976
s 0
f  1481 1482 1483 1484
f  1481 1482 1486 1485
f  1483 1482 1486 1487
f  1484 1483 1487 1488
f  1484 1481 1485 1488
f  1485 1486 1487 1488
v  3.99604E+02  1.24652E+02  5.22493E+01
v  4.36104E+02  1.24652E+02  5.22493E+01
v  4.36104E+02  1.24652E+02  2.47493E+01
v  3.99604E+02  1.24652E+02  2.47493E+01
v  3.99604E+02  7.02207E+01  5.22493E+01
v  4.36104E+02  7.02207E+01  5.22493E+01
v  4.36104E+02  7.02207E+01  2.47493E+01
v  3.99604E+02  7.02207E+01  2.47493E+01
g vc_ws_2977
s 0
f  1489 1490 1491 1492
f  1489 1490 1494 1493
f  1491 1490 1494 1495
f  1492 1491 1495 1496
f  1492 1489 1493 1496
f  1493 1494 1495 1496
v  3.22936E+02  1.52054E+02  3.24701E+02
v  3.71816E+02  1.52054E+02  3.24701E+02
v  3.71816E+02  1.52054E+02  3.03058E+02
v  3.22936E+02  1.52054E+02  3.03058E+02
v  3.22936E+02  9.83315E+01  3.24701E+02
v  3.71816E+02  9.83315E+01  3.24701E+02
v  3.71816E+02  9.83315E+01  3.03058E+02
v  3.22936E+02  9.83315E+01  3.03058E+02
g vc_ws_2990
s 0
f  1497 1498 1499 1500
f  1497 1498 1502 1501
f  1499 1498 1502 1503
f  1500 1499 1503 1504
f  1500 1497 1501 1504
f  1501 1502 1503 1504
v -5.41679E+02  1.29376E+02 -5.92879E+02
v -5.10235E+02  1.29376E+02 -5.92879E+02
v -5.10235E+02  1.29376E+02 -6.23017E+02
v -5.41679E+02  1.29376E+02 -6.23017E+02
v -5.41679E+02  7.30799E+01 -5.92879E+02
v -5.10235E+02  7.30799E+01 -5.92879E+02
v -5.10235E+02  7.30799E+01 -6.23017E+02
v -5.41679E+02  7.30799E+01 -6.23017E+02
g vc_ws_3001
s 0
f  1505 1506 1507 1508
f  1505 1506 1510 1509
f  1507 1506 1510 1511
f  1508 1507 1511 1512
f  1508 1505 1509 1512
f  1509 1510 1511 1512
v -7.51290E+02  1.47245E+02 -4.16622E+02
v -7.20096E+02  1.47245E+02 -4.16622E+02
v -7.20096E+02  1.47245E+02 -4.52438E+02
v -7.51290E+02  1.47245E+02 -4.52438E+02
v -7.51290E+02  1.06403E+02 -4.16622E+02
v -7.20096E+02  1.06403E+02 -4.16622E+02
v -7.20096E+02  1.06403E+02 -4.52438E+02
v -7.51290E+02  1.06403E+02 -4.52438E+02
g vc_ws_3004
s 0
f  1513 1514 1515 1516
f  1513 1514 1518 1517
f  1515 1514 1518 1519
f  1516 1515 1519 1520
f  1516 1513 1517 1520
f  1517 1518 1519 1520
v  2.32889E+02  1.36535E+02  3.29775E+02
v  2.65423E+02  1.36535E+02  3.29775E+02
v  2.65423E+02  1.36535E+02  2.97217E+02
v  2.32889E+02  1.36535E+02  2.97217E+02
v  2.32889E+02  1.03215E+02  3.29775E+02
v  2.65423E+02  1.03215E+02  3.29775E+02
v  2.65423E+02  1.03215E+02  2.97217E+02
v  2.32889E+02  1.03215E+02  2.97217E+02
g vc_ws_3018
s 0
f  1521 1522 1523 1524
f  1521 1522 1526 1525
f  1523 1522 1526 1527
f  1524 1523 1527 1528
f  1524 1521 1525 1528
f  1525 1526 1527 1528
v  5.05757E+02  1.24339E+02  5.26682E+01
v  5.39236E+02  1.24339E+02  5.26682E+01
v  5.39236E+02  1.24339E+02  2.41682E+01
v  5.05757E+02  1.24339E+02  2.41682E+01
v  5.05757E+02  6.99081E+01  5.26682E+01
v  5.39236E+02  6.99081E+01  5.26682E+01
v  5.39236E+02  6.99081E+01  2.41682E+01
v  5.05757E+02  6.99081E+01  2.41682E+01
g vc_ws_3021
s 0
f  1529 1530 1531 1532
f  1529 1530 1534 1533
f  1531 1530 1534 1535
f  1532 1531 1535 1536
f  1532 1529 1533 1536
f  1533 1534 1535 1536
v  3.45299E+01  7.14510E+01 -2.48081E+02
v  7.02845E+01  7.14510E+01 -2.48081E+02
v  7.02845E+01  7.14510E+01 -2.92254E+02
v  3.45299E+01  7.14510E+01 -2.92254E+02
v  3.45299E+01  4.41768E+01 -2.48081E+02
v  7.02845E+01  4.41768E+01 -2.48081E+02
v  7.02845E+01  4.41768E+01 -2.92254E+02
v  3.45299E+01  4.41768E+01 -2.92254E+02
g vc_ws_3047
s 0
f  1537 1538 1539 1540
f  1537 1538 1542 1541
f  1539 1538 1542 1543
f  1540 1539 1543 1544
f  1540 1537 1541 1544
f  1541 1542 1543 1544
v  2.33727E+02  1.51314E+02  2.30482E+02
v  2.65423E+02  1.51314E+02  2.30482E+02
v  2.65423E+02  1.51314E+02  1.96675E+02
v  2.33727E+02  1.51314E+02  1.96675E+02
v  2.33727E+02  1.08461E+02  2.30482E+02
v  2.65423E+02  1.08461E+02  2.30482E+0