v -3.53630E+02  1.17241E+02 -5.66185E+02
v -2.02064E+02  1.17241E+02 -5.66185E+02
v -2.02064E+02  1.17241E+02 -9.47710E+02
v -3.53630E+02  1.17241E+02 -9.47710E+02
v -3.53630E+02 -4.06287E+00 -5.66185E+02
v -2.02064E+02 -4.06287E+00 -5.66185E+02
v -2.02064E+02 -4.06287E+00 -9.47710E+02
v -3.53630E+02 -4.06287E+00 -9.47710E+02
g vc_0
f  1 2 3 4
f  1 2 6 5
f  3 2 6 7
f  4 3 7 8
f  4 1 5 8
f  5 6 7 8
v  3.82936E+02  2.89940E+01 -8.41530E+02
v  5.08124E+02  2.89940E+01 -8.41530E+02
v  5.08124E+02  2.89940E+01 -1.04214E+03
v  3.82936E+02  2.89940E+01 -1.04214E+03
v  3.82936E+02 -4.06287E+00 -8.41530E+02
v  5.08124E+02 -4.06287E+00 -8.41530E+02
v  5.08124E+02 -4.06287E+00 -1.04214E+03
v  3.82936E+02 -4.06287E+00 -1.04214E+03
g vc_1
f  9 10 11 12
f  9 10 14 13
f  11 10 14 15
f  12 11 15 16
f  12 9 13 16
f  13 14 15 16
v -5.41679E+02  1.16540E+02 -6.53517E+02
v -3.53630E+02  1.16540E+02 -6.53517E+02
v -3.53630E+02  1.16540E+02 -7.77475E+02
v -5.41679E+02  1.16540E+02 -7.77475E+02
v -5.41679E+02 -4.06287E+00 -6.53517E+02
v -3.53630E+02 -4.06287E+00 -6.53517E+02
v -3.53630E+02 -4.06287E+00 -7.77475E+02
v -5.41679E+02 -4.06287E+00 -7.77475E+02
g vc_2
f  17 18 19 20
f  17 18 22 21
f  19 18 22 23
f  20 19 23 24
f  20 17 21 24
f  21 22 23 24
v -4.32404E+02  6.72190E+01 -7.77475E+02
v -3.53630E+02  6.72190E+01 -7.77475E+02
v -3.53630E+02  6.72190E+01 -9.47710E+02
v -4.32404E+02  6.72190E+01 -9.47710E+02
v -4.32404E+02 -4.06287E+00 -7.77475E+02
v -3.53630E+02 -4.06287E+00 -7.77475E+02
v -3.53630E+02 -4.06287E+00 -9.47710E+02
v -4.32404E+02 -4.06287E+00 -9.47710E+02
g vc_3
f  25 26 27 28
f  25 26 30 29
f  27 26 30 31
f  28 27 31 32
f  28 25 29 32
f  29 30 31 32
v  2.18493E+02  4.19032E+01 -4.65218E+02
v  4.26852E+02  4.19032E+01 -4.65218E+02
v  4.26852E+02  4.19032E+01 -6.46185E+02
v  2.18493E+02  4.19032E+01 -6.46185E+02
v  2.18493E+02  2.90077E+01 -4.65218E+02
v  4.26852E+02  2.90077E+01 -4.65218E+02
v  4.26852E+02  2.90077E+01 -6.46185E+02
v  2.18493E+02  2.90077E+01 -6.46185E+02
g vc_4
f  33 34 35 36
f  33 34 38 37
f  35 34 38 39
f  36 35 39 40
f  36 33 37 40
f  37 38 39 40
v -5.52064E+02  1.60242E+02  4.02667E+02
v -4.16021E+02  1.60242E+02  4.02667E+02
v -4.16021E+02  1.60242E+02  2.45266E+02
v -5.52064E+02  1.60242E+02  2.45266E+02
v -5.52064E+02  9.82261E+01  4.02667E+02
v -4.16021E+02  9.82261E+01  4.02667E+02
v -4.16021E+02  9.82261E+01  2.45266E+02
v -5.52064E+02  9.82261E+01  2.45266E+02
g vc_5
f  41 42 43 44
f  41 42 46 45
f  43 42 46 47
f  44 43 47 48
f  44 41 45 48
f  45 46 47 48
v  1.91686E+02  3.94461E+01 -6.46185E+02
v  3.82936E+02  3.94461E+01 -6.46185E+02
v  3.82936E+02  3.94461E+01 -8.46185E+02
v  1.91686E+02  3.94461E+01 -8.46185E+02
v  1.91686E+02  6.28684E+00 -6.46185E+02
v  3.82936E+02  6.28684E+00 -6.46185E+02
v  3.82936E+02  6.28684E+00 -8.46185E+02
v  1.91686E+02  6.28684E+00 -8.46185E+02
g vc_6
f  49 50 51 52
f  49 50 54 53
f  51 50 54 55
f  52 51 55 56
f  52 49 53 56
f  53 54 55 56
v  3.82936E+02  4.07236E+01 -6.46185E+02
v  5.08270E+02  4.07236E+01 -6.46185E+02
v  5.08270E+02  4.07236E+01 -8.41530E+02
v  3.82936E+02  4.07236E+01 -8.41530E+02
v  3.82936E+02  5.31244E+00 -6.46185E+02
v  5.08270E+02  5.31244E+00 -6.46185E+02
v  5.08270E+02  5.31244E+00 -8.41530E+02
v  3.82936E+02  5.31244E+00 -8.41530E+02
g vc_7
f  57 58 59 60
f  57 58 62 61
f  59 58 62 63
f  60 59 63 64
f  60 57 61 64
f  61 62 63 64
v  2.18493E+02  5.22849E+01 -4.06556E+02
v  4.24527E+02  5.22849E+01 -4.06556E+02
v  4.24527E+02  5.22849E+01 -4.65218E+02
v  2.18493E+02  5.22849E+01 -4.65218E+02
v  2.18493E+02  3.45107E+01 -4.06556E+02
v  4.24527E+02  3.45107E+01 -4.06556E+02
v  4.24527E+02  3.45107E+01 -4.65218E+02
v  2.18493E+02  3.45107E+01 -4.65218E+02
g vc_8
f  65 66 67 68
f  65 66 70 69
f  67 66 70 71
f  68 67 71 72
f  68 65 69 72
f  69 70 71 72
v  4.34466E+02  1.50339E+02  3.24701E+02
v  5.39236E+02  1.50339E+02  3.24701E+02
v  5.39236E+02  1.50339E+02  1.55506E+02
v  4.34466E+02  1.50339E+02  1.55506E+02
v  4.34466E+02  8.35942E+01  3.24701E+02
v  5.39236E+02  8.35942E+01  3.24701E+02
v  5.39236E+02  8.35942E+01  1.55506E+02
v  4.34466E+02  8.35942E+01  1.55506E+02
g vc_9
f  73 74 75 76
f  73 74 78 77
f  75 74 78 79
f  76 75 79 80
f  76 73 77 80
f  77 78 79 80
v -4.90849E+02  1.61205E+02 -4.01597E+01
v -3.14736E+02  1.61205E+02 -4.01597E+01
v -3.14736E+02  1.61205E+02 -1.20062E+02
v -4.90849E+02  1.61205E+02 -1.20062E+02
v -4.90849E+02  9.16763E+01 -4.01597E+01
v -3.14736E+02  9.16763E+01 -4.01597E+01
v -3.14736E+02  9.16763E+01 -1.20062E+02
v -4.90849E+02  9.16763E+01 -1.20062E+02
g vc_10
f  81 82 83 84
f  81 82 86 85
f  83 82 86 87
f  84 83 87 88
f  84 81 85 88
f  85 86 87 88
v -4.86997E+02  1.54475E+02 -2.43187E+02
v -4.34520E+02  1.54475E+02 -2.43187E+02
v -4.34520E+02  1.54475E+02 -4.55470E+02
v -4.86997E+02  1.54475E+02 -4.55470E+02
v -4.86997E+02  8.95674E+01 -2.43187E+02
v -4.34520E+02  8.95674E+01 -2.43187E+02
v -4.34520E+02  8.95674E+01 -4.55470E+02
v -4.86997E+02  8.95674E+01 -4.55470E+02
g vc_11
f  89 90 91 92
f  89 90 94 93
f  91 90 94 95
f  92 91 95 96
f  92 89 93 96
f  93 94 95 96
v -4.68115E+02  1.78617E+02  2.45266E+02
v -3.39808E+02  1.78617E+02  2.45266E+02
v -3.39808E+02  1.78617E+02  1.59443E+02
v -4.68115E+02  1.78617E+02  1.59443E+02
v -4.68115E+02  9.79461E+01  2.45266E+02
v -3.39808E+02  9.79461E+01  2.45266E+02
v -3.39808E+02  9.79461E+01  1.59443E+02
v -4.68115E+02  9.79461E+01  1.59443E+02
g vc_12
f  97 98 99 100
f  97 98 102 101
f  99 98 102 103
f  100 99 103 104
f  100 97 101 104
f  101 102 103 104
v -7.25517E+02  1.48492E+02 -7.37277E+02
v -6.38309E+02  1.48492E+02 -7.37277E+02
v -6.38309E+02  1.48492E+02 -8.57696E+02
v -7.25517E+02  1.48492E+02 -8.57696E+02
v -7.25517E+02  1.01850E+02 -7.37277E+02
v -6.38309E+02  1.01850E+02 -7.37277E+02
v -6.38309E+02  1.01850E+02 -8.57696E+02
v -7.25517E+02  1.01850E+02 -8.57696E+02
g vc_13
f  105 106 107 108
f  105 106 110 109
f  107 106 110 111
f  108 107 111 112
f  108 105 109 112
f  109 110 111 112
v  7.80876E+01  3.04617E+01 -8.46185E+02
v  2.57603E+02  3.04617E+01 -8.46185E+02
v  2.57603E+02  3.04617E+01 -1.03343E+03
v  7.80876E+01  3.04617E+01 -1.03343E+03
v  7.80876E+01  6.23499E+00 -8.46185E+02
v  2.57603E+02  6.23499E+00 -8.46185E+02
v  2.57603E+02  6.23499E+00 -1.03343E+03
v  7.80876E+01  6.23499E+00 -1.03343E+03
g vc_14
f  113 114 115 116
f  113 114 118 117
f  115 114 118 119
f  116 115 119 120
f  116 113 117 120
f  117 118 119 120
v -2.02064E+02  1.59940E+02  1.98004E+01
v -9.71505E+01  1.59940E+02  1.98004E+01
v -9.71505E+01  1.59940E+02 -4.15022E+01
v -2.02064E+02  1.59940E+02 -4.15022E+01
v -2.02064E+02  8.47801E+01  1.98004E+01
v -9.71505E+01  8.47801E+01  1.98004E+01
v -9.71505E+01  8.47801E+01 -4.15022E+01
v -2.02064E+02  8.47801E+01 -4.15022E+01
g vc_15
f  121 122 123 124
f  121 122 126 125
f  123 122 126 127
f  124 123 127 128
f  124 121 125 128
f  125 126 127 128
v  2.57603E+02  2.95027E+01 -8.46185E+02
v  3.82936E+02  2.95027E+01 -8.46185E+02
v  3.82936E+02  2.95027E+01 -1.03061E+03
v  2.57603E+02  2.95027E+01 -1.03061E+03
v  2.57603E+02  2.87841E+00 -8.46185E+02
v  3.82936E+02  2.87841E+00 -8.46185E+02
v  3.82936E+02  2.87841E+00 -1.03061E+03
v  2.57603E+02  2.87841E+00 -1.03061E+03
g vc_16
f  129 130 131 132
f  129 130 134 133
f  131 130 134 135
f  132 131 135 136
f  132 129 133 136
f  133 134 135 136
v  4.61255E+02  1.19612E+02  4.02667E+02
v  5.39236E+02  1.19612E+02  4.02667E+02
v  5.39236E+02  1.19612E+02  3.24701E+02
v  4.61255E+02  1.19612E+02  3.24701E+02
v  4.61255E+02  9.78547E+01  4.02667E+02
v  5.39236E+02  9.78547E+01  4.02667E+02
v  5.39236E+02  9.78547E+01  3.24701E+02
v  4.61255E+02  9.78547E+01  3.24701E+02
g vc_17
f  137 138 139 140
f  137 138 142 141
f  139 138 142 143
f  140 139 143 144
f  140 137 141 144
f  141 142 143 144
v  1.32519E+02  4.74568E+01 -4.06149E+02
v  2.18493E+02  4.74568E+01 -4.06149E+02
v  2.18493E+02  4.74568E+01 -5.46639E+02
v  1.32519E+02  4.74568E+01 -5.46639E+02
v  1.32519E+02  2.69900E+01 -4.06149E+02
v  2.18493E+02  2.69900E+01 -4.06149E+02
v  2.18493E+02  2.69900E+01 -5.46639E+02
v  1.32519E+02  2.69900E+01 -5.46639E+02
g vc_18
f  145 146 147 148
f  145 146 150 149
f  147 146 150 151
f  148 147 151 152
f  148 145 149 152
f  149 150 151 152
v -3.39808E+02  2.19389E+02  1.69623E+02
v -2.77431E+02  2.19389E+02  1.69623E+02
v -2.77431E+02  2.19389E+02  1.28856E+02
v -3.39808E+02  2.19389E+02  1.28856E+02
v -3.39808E+02  1.32299E+02  1.69623E+02
v -2.77431E+02  1.32299E+02  1.69623E+02
v -2.77431E+02  1.32299E+02  1.28856E+02
v -3.39808E+02  1.32299E+02  1.28856E+02
g vc_19
f  153 154 155 156
f  153 154 158 157
f  155 154 158 159
f  156 155 159 160
f  156 153 157 160
f  157 158 159 160
v -8.87064E+02  1.72792E+02  2.70657E+02
v -7.83444E+02  1.72792E+02  2.70657E+02
v -7.83444E+02  1.72792E+02  1.98092E+02
v -8.87064E+02  1.72792E+02  1.98092E+02
v -8.87064E+02  1.47699E+02  2.70657E+02
v -7.83444E+02  1.47699E+02  2.70657E+02
v -7.83444E+02  1.47699E+02  1.98092E+02
v -8.87064E+02  1.47699E+02  1.98092E+02
g vc_20
f  161 162 163 164
f  161 162 166 165
f  163 162 166 167
f  164 163 167 168
f  164 161 165 168
f  165 166 167 168
v  1.33036E+02  3.99862E+01 -5.46639E+02
v  2.18493E+02  3.99862E+01 -5.46639E+02
v  2.18493E+02  3.99862E+01 -6.46185E+02
v  1.33036E+02  3.99862E+01 -6.46185E+02
v  1.33036E+02  2.40321E+01 -5.46639E+02
v  2.18493E+02  2.40321E+01 -5.46639E+02
v  2.18493E+02  2.40321E+01 -6.46185E+02
v  1.33036E+02  2.40321E+01 -6.46185E+02
g vc_21
f  169 170 171 172
f  169 170 174 173
f  171 170 174 175
f  172 171 175 176
f  172 169 173 176
f  173 174 175 176
v -3.77417E+01  1.47861E+02  1.98004E+01
v  6.77131E+01  1.47861E+02  1.98004E+01
v  6.77131E+01  1.47861E+02 -4.26943E+01
v -3.77417E+01  1.47861E+02 -4.26943E+01
v -3.77417E+01 -4.06287E+00  1.98004E+01
v  6.77131E+01 -4.06287E+00  1.98004E+01
v  6.77131E+01 -4.06287E+00 -4.26943E+01
v -3.77417E+01 -4.06287E+00 -4.26943E+01
g vc_22
f  177 178 179 180
f  177 178 182 181
f  179 178 182 183
f  180 179 183 184
f  180 177 181 184
f  181 182 183 184
v -5.01661E+02  1.56081E+02 -1.20062E+02
v -4.31945E+02  1.56081E+02 -1.20062E+02
v -4.31945E+02  1.56081E+02 -2.43187E+02
v -5.01661E+02  1.56081E+02 -2.43187E+02
v -5.01661E+02  9.59985E+01 -1.20062E+02
v -4.31945E+02  9.59985E+01 -1.20062E+02
v -4.31945E+02  9.59985E+01 -2.43187E+02
v -5.01661E+02  9.59985E+01 -2.43187E+02
g vc_23
f  185 186 187 188
f  185 186 190 189
f  187 186 190 191
f  188 187 191 192
f  188 185 189 192
f  189 190 191 192
v -4.68115E+02  1.68917E+02  2.63745E+01
v -3.39808E+02  1.68917E+02  2.63745E+01
v -3.39808E+02  1.68917E+02 -4.01597E+01
v -4.68115E+02  1.68917E+02 -4.01597E+01
v -4.68115E+02  1.00223E+02  2.63745E+01
v -3.39808E+02  1.00223E+02  2.63745E+01
v -3.39808E+02  1.00223E+02 -4.01597E+01
v -4.68115E+02  1.00223E+02 -4.01597E+01
g vc_24
f  193 194 195 196
f  193 194 198 197
f  195 194 198 199
f  196 195 199 200
f  196 193 197 200
f  197 198 199 200
v -5.52064E+02  1.59685E+02  2.45266E+02
v -4.88676E+02  1.59685E+02  2.45266E+02
v -4.88676E+02  1.59685E+02  1.19950E+02
v -5.52064E+02  1.59685E+02  1.19950E+02
v -5.52064E+02  9.55532E+01  2.45266E+02
v -4.88676E+02  9.55532E+01  2.45266E+02
v -4.88676E+02  9.55532E+01  1.19950E+02
v -5.52064E+02  9.55532E+01  1.19950E+02
g vc_25
f  201 202 203 204
f  201 202 206 205
f  203 202 206 207
f  204 203 207 208
f  204 201 205 208
f  205 206 207 208
v -8.21939E+02  1.83323E+02 -5.66185E+02
v -7.68694E+02  1.83323E+02 -5.66185E+02
v -7.68694E+02  1.83323E+02 -7.37277E+02
v -8.21939E+02  1.83323E+02 -7.37277E+02
v -8.21939E+02  1.11503E+02 -5.66185E+02
v -7.68694E+02  1.11503E+02 -5.66185E+02
v -7.68694E+02  1.11503E+02 -7.37277E+02
v -8.21939E+02  1.11503E+02 -7.37277E+02
g vc_26
f  209 210 211 212
f  209 210 214 213
f  211 210 214 215
f  212 211 215 216
f  212 209 213 216
f  213 214 215 216
v -1.57381E+02  2.19389E+02  8.28251E+01
v -8.90872E+01  2.19389E+02  8.28251E+01
v -8.90872E+01  2.19389E+02  1.98004E+01
v -1.57381E+02  2.19389E+02  1.98004E+01
v -1.57381E+02  1.21525E+02  8.28251E+01
v -8.90872E+01  1.21525E+02  8.28251E+01
v -8.90872E+01  1.21525E+02  1.98004E+01
v -1.57381E+02  1.21525E+02  1.98004E+01
g vc_27
f  217 218 219 220
f  217 218 222 221
f  219 218 222 223
f  220 219 223 224
f  220 217 221 224
f  221 222 223 224
v  4.69560E+02  1.3643